<svg width="321" height="10" viewBox="0 0 321 10" fill="none" xmlns="http://www.w3.org/2000/svg">
<line x1="0.5" y1="0.5" x2="0.5" y2="9.5" stroke="white" stroke-linecap="round"/>
<line x1="10.5" y1="2.5" x2="10.5" y2="7.5" stroke="white" stroke-linecap="round"/>
<line x1="20.5" y1="2.5" x2="20.5" y2="7.5" stroke="white" stroke-linecap="round"/>
<line x1="30.5" y1="2.5" x2="30.5" y2="7.5" stroke="white" stroke-linecap="round"/>
<line x1="40.5" y1="2.5" x2="40.5" y2="7.5" stroke="white" stroke-linecap="round"/>
<line x1="50.5" y1="2.5" x2="50.5" y2="7.5" stroke="white" stroke-linecap="round"/>
<line x1="60.5" y1="2.5" x2="60.5" y2="7.5" stroke="white" stroke-linecap="round"/>
<line x1="70.5" y1="2.5" x2="70.5" y2="7.5" stroke="white" stroke-linecap="round"/>
<line x1="80.5" y1="2.5" x2="80.5" y2="7.5" stroke="white" stroke-linecap="round"/>
<line x1="90.5" y1="2.5" x2="90.5" y2="7.5" stroke="white" stroke-linecap="round"/>
<line x1="100.5" y1="2.5" x2="100.5" y2="7.5" stroke="white" stroke-linecap="round"/>
<line x1="110.5" y1="2.5" x2="110.5" y2="7.5" stroke="white" stroke-linecap="round"/>
<line x1="120.5" y1="2.5" x2="120.5" y2="7.5" stroke="white" stroke-linecap="round"/>
<line x1="130.5" y1="2.5" x2="130.5" y2="7.5" stroke="white" stroke-linecap="round"/>
<line x1="140.5" y1="2.5" x2="140.5" y2="7.5" stroke="white" stroke-linecap="round"/>
<line x1="150.5" y1="2.5" x2="150.5" y2="7.5" stroke="white" stroke-linecap="round"/>
<line x1="160.5" y1="2.5" x2="160.5" y2="7.5" stroke="white" stroke-linecap="round"/>
<line x1="170.5" y1="2.5" x2="170.5" y2="7.5" stroke="white" stroke-linecap="round"/>
<line x1="180.5" y1="2.5" x2="180.5" y2="7.5" stroke="white" stroke-linecap="round"/>
<line x1="190.5" y1="2.5" x2="190.5" y2="7.5" stroke="white" stroke-linecap="round"/>
<line x1="200.5" y1="2.5" x2="200.5" y2="7.5" stroke="white" stroke-linecap="round"/>
<line x1="210.5" y1="2.5" x2="210.5" y2="7.5" stroke="white" stroke-linecap="round"/>
<line x1="220.5" y1="2.5" x2="220.5" y2="7.5" stroke="white" stroke-linecap="round"/>
<line x1="230.5" y1="2.5" x2="230.5" y2="7.5" stroke="white" stroke-linecap="round"/>
<line x1="240.5" y1="2.5" x2="240.5" y2="7.5" stroke="white" stroke-linecap="round"/>
<line x1="250.5" y1="2.5" x2="250.5" y2="7.5" stroke="white" stroke-linecap="round"/>
<line x1="260.5" y1="2.5" x2="260.5" y2="7.5" stroke="white" stroke-linecap="round"/>
<line x1="270.5" y1="2.5" x2="270.5" y2="7.5" stroke="white" stroke-linecap="round"/>
<line x1="280.5" y1="2.5" x2="280.5" y2="7.5" stroke="white" stroke-linecap="round"/>
<line x1="290.5" y1="2.5" x2="290.5" y2="7.5" stroke="white" stroke-linecap="round"/>
<line x1="300.5" y1="2.5" x2="300.5" y2="7.5" stroke="white" stroke-linecap="round"/>
<line x1="310.5" y1="2.5" x2="310.5" y2="7.5" stroke="white" stroke-linecap="round"/>
<line x1="320.5" y1="0.5" x2="320.5" y2="9.5" stroke="white" stroke-linecap="round"/>
</svg>
