<svg width="152" height="60" viewBox="0 0 152 60" fill="none" xmlns="http://www.w3.org/2000/svg">
<g clip-path="url(#clip0_128_377)">
<path d="M75.3542 4.93665L75.5641 9.3378H75.0307C74.9836 8.76457 74.8418 8.20288 74.6109 7.67514C74.356 7.1766 73.956 6.7652 73.4625 6.49417C72.8697 6.21477 72.2169 6.08299 71.5609 6.11029H68.8889V20.463C68.8889 21.6195 69.0148 22.3383 69.2642 22.6244C69.6198 23.0124 70.1664 23.2063 70.904 23.2063H71.5609V23.7149H63.5126V23.2015H64.1843C64.9877 23.2015 65.5574 22.9618 65.8933 22.4826C66.0991 22.1876 66.2011 21.5127 66.1995 20.4581V6.11029H63.9201C63.2841 6.0806 62.6472 6.14572 62.0308 6.30345C61.5214 6.50174 61.0889 6.85542 60.796 7.31327C60.4175 7.92404 60.2057 8.62164 60.1811 9.3378H59.6329L59.8551 4.93665H75.3542Z" fill="white"/>
<path d="M89.5148 14.135C90.8319 14.4138 91.8197 14.8572 92.4782 15.4652C92.915 15.8602 93.262 16.3427 93.4962 16.8805C93.7304 17.4184 93.8464 17.9995 93.8365 18.5851C93.8277 19.5522 93.5143 20.4924 92.9401 21.2747C92.3365 22.1342 91.479 22.7876 90.4853 23.1452C89.4431 23.5397 87.8544 23.7361 85.719 23.7345H76.752V23.221H77.4657C78.2593 23.221 78.8289 22.9716 79.1746 22.4728C79.387 22.15 79.4957 21.463 79.4957 20.4091V8.26195C79.4957 7.09809 79.3607 6.36456 79.0907 6.06137C78.7252 5.65549 78.1835 5.45254 77.4657 5.45254H76.752V4.93663H84.9534C86.1888 4.90759 87.4235 5.01916 88.6331 5.26916C90.0342 5.59517 91.1043 6.18362 91.8436 7.03452C92.5649 7.83737 92.9593 8.87698 92.9499 9.9515C92.9591 10.8676 92.6524 11.7594 92.0806 12.4797C91.4995 13.2263 90.6442 13.7781 89.5148 14.135ZM82.1826 13.4015C82.5739 13.4712 82.9688 13.5194 83.3655 13.5458C83.8076 13.5776 84.2965 13.5947 84.8275 13.5947C86.1874 13.5947 87.2115 13.4488 87.8996 13.157C88.5558 12.8917 89.1076 12.4234 89.4728 11.822C89.8331 11.2322 90.022 10.5553 90.0185 9.86593C90.0203 9.32652 89.8993 8.79365 89.6646 8.30687C89.4299 7.82008 89.0875 7.39189 88.6627 7.05408C87.749 6.26187 86.4286 5.86576 84.7016 5.86576C83.8519 5.85574 83.0047 5.95853 82.1826 6.1714V13.4015ZM82.1826 22.3799C83.2347 22.626 84.3119 22.7515 85.393 22.754C87.0789 22.754 88.3664 22.3774 89.2555 21.6244C89.6753 21.2869 90.0124 20.8598 90.2417 20.3749C90.4709 19.89 90.5863 19.36 90.5791 18.8247C90.5758 18.0817 90.3675 17.3538 89.9766 16.7195C89.5138 15.9935 88.8271 15.4344 88.0182 15.1253C86.9503 14.7073 85.8074 14.5093 84.6596 14.5434C84.0817 14.5434 83.5853 14.5434 83.1778 14.5703C82.8468 14.5817 82.5168 14.6144 82.19 14.6681L82.1826 22.3799Z" fill="white"/>
<path d="M110.146 8.03946C110.146 6.91228 109.96 6.20076 109.592 5.90001C109.224 5.59926 108.479 5.45012 107.37 5.45012V4.93665H115.584V5.45012C114.408 5.48761 113.657 5.6718 113.331 6.0027C113.003 6.33524 112.837 7.12011 112.837 8.35977V20.2918C112.837 21.5315 112.998 22.3139 113.331 22.6489C113.665 22.9838 114.408 23.1648 115.584 23.2015V23.7149H107.36V23.2015C108.563 23.164 109.328 22.9773 109.654 22.6415C109.98 22.3041 110.148 21.5217 110.148 20.2918V9.53341L101.344 20.7026C101.324 21.2452 101.378 21.788 101.505 22.3163C101.567 22.4653 101.661 22.5997 101.779 22.7109C101.897 22.822 102.038 22.9075 102.191 22.9618C102.55 23.1248 103.186 23.212 104.1 23.2235V23.7149H95.911V23.2015C97.0865 23.1648 97.8372 22.9789 98.1657 22.6489C98.4941 22.3188 98.6596 21.5315 98.6596 20.2918V8.35977C98.6596 7.11929 98.495 6.33361 98.1657 6.0027C97.8364 5.6718 97.0848 5.48761 95.911 5.45012V4.93665H104.098V5.45012C102.914 5.48761 102.158 5.6718 101.831 6.0027C101.503 6.33361 101.338 7.11929 101.337 8.35977V19.1793L110.146 8.03946Z" fill="white"/>
<path d="M133.347 4.5063L133.782 10.8929H133.347C132.769 8.98081 131.946 7.60504 130.878 6.76556C129.776 5.91525 128.411 5.46936 127.015 5.50389C125.807 5.48793 124.619 5.81732 123.595 6.45259C122.577 7.08505 121.777 8.09406 121.195 9.47961C120.612 10.8652 120.32 12.5881 120.32 14.6485C120.283 16.1628 120.564 17.6682 121.145 19.0692C121.643 20.2589 122.507 21.2627 123.615 21.9373C124.758 22.6118 126.069 22.9572 127.401 22.9349C128.537 22.9578 129.66 22.6882 130.66 22.1525C131.604 21.6292 132.64 20.5925 133.77 19.0423L134.214 19.3137C133.263 20.9862 132.153 22.2087 130.885 22.9814C129.519 23.7847 127.952 24.189 126.363 24.1477C123.219 24.1477 120.784 22.9928 119.058 20.683C117.772 18.9633 117.129 16.9404 117.127 14.6143C117.112 12.8148 117.553 11.0402 118.409 9.45271C119.207 7.93418 120.422 6.66905 121.913 5.80219C123.391 4.94158 125.076 4.49373 126.791 4.5063C128.204 4.51672 129.596 4.85858 130.851 5.50389C131.106 5.66156 131.392 5.76558 131.69 5.80953C131.812 5.81066 131.933 5.7879 132.045 5.74258C132.158 5.69725 132.261 5.63026 132.347 5.54546C132.612 5.2518 132.791 4.8927 132.866 4.5063H133.347Z" fill="white"/>
<path d="M151.793 4.93665L152.003 9.3378H151.469C151.422 8.76457 151.28 8.20288 151.049 7.67514C150.794 7.17409 150.392 6.76084 149.896 6.48928C149.304 6.21234 148.653 6.08226 147.999 6.11029H145.327V20.463C145.327 21.6195 145.453 22.3383 145.705 22.6244C146.059 23.0124 146.605 23.2063 147.342 23.2063H147.999V23.7149H139.953V23.2015H140.635C141.435 23.2015 142.006 22.9569 142.341 22.4826C142.547 22.1876 142.65 21.5127 142.65 20.4581V6.11029H140.368C139.732 6.0806 139.095 6.14572 138.479 6.30345C137.965 6.49952 137.528 6.85341 137.232 7.31327C136.852 7.92358 136.64 8.62145 136.617 9.3378H136.086L136.308 4.93665H151.793Z" fill="white"/>
<path d="M63.6608 29.4609H69.8347L70.1459 31.3778H69.7952C69.7565 31.0607 69.6495 30.7556 69.4816 30.4829C69.3657 30.2953 69.1928 30.1489 68.9876 30.0648C68.6744 29.9836 68.3505 29.9498 68.027 29.9646H67.4022V34.8792C67.3785 35.2157 67.4119 35.5537 67.5009 35.8792C67.5289 35.9469 67.5718 36.0075 67.6265 36.0566C67.6812 36.1057 67.7463 36.142 67.8171 36.1629C68.1422 36.2274 68.4733 36.2586 68.8049 36.2558V36.5418H64.9326V36.2558C65.4265 36.2558 65.755 36.1653 65.8982 36.0113C66.0414 35.8572 66.113 35.4831 66.113 34.8743V29.9597H65.471C65.1649 29.945 64.8583 29.9722 64.5597 30.0404C64.3678 30.1178 64.2054 30.2529 64.0954 30.4267C63.9093 30.7154 63.7802 31.0365 63.7151 31.3729H63.3644L63.6608 29.4609Z" fill="white"/>
<path d="M74.8109 32.8008C76.1181 33.0682 76.7717 33.6737 76.7717 34.6175C76.7848 34.9098 76.7152 35.2 76.5708 35.4553C76.4264 35.7106 76.2129 35.9209 75.9543 36.0626C75.411 36.3804 74.6528 36.5516 73.6798 36.5516H70.1533V36.2655C70.6151 36.2655 70.909 36.1799 71.03 36.0063C71.151 35.8327 71.2127 35.4611 71.2127 34.8889V31.1235C71.2376 30.7953 71.2101 30.4652 71.1312 30.1455C71.0702 30.0387 70.9858 29.9468 70.8843 29.8765C70.658 29.7769 70.4097 29.7365 70.1632 29.7591V29.4608H73.4551C73.9738 29.4496 74.4919 29.4997 74.9986 29.61C75.374 29.6977 75.7119 29.9005 75.9642 30.1895C76.219 30.4797 76.3546 30.854 76.3445 31.2384C76.3379 32.0437 75.8267 32.5645 74.8109 32.8008ZM72.5093 32.6223H72.9241C73.6354 32.6223 74.1589 32.4879 74.4676 32.2189C74.616 32.1016 74.7359 31.9529 74.8184 31.7836C74.9009 31.6143 74.9439 31.4288 74.9442 31.2409C74.9593 31.0488 74.9213 30.8563 74.8343 30.684C74.7473 30.5117 74.6146 30.3661 74.4503 30.2628C74.1293 30.0623 73.614 29.9621 72.9044 29.9621H72.4994L72.5093 32.6223ZM72.5093 35.9159C72.8105 36.0038 73.1238 36.0451 73.4378 36.0381C74.0577 36.0381 74.517 35.9061 74.8208 35.6371C74.9682 35.5076 75.085 35.3476 75.1631 35.1685C75.2412 34.9894 75.2786 34.7954 75.2727 34.6004C75.2812 34.384 75.2316 34.1692 75.1287 33.978C75.0259 33.7868 74.8736 33.6261 74.6874 33.5123C74.1936 33.2344 73.6296 33.1029 73.0624 33.1334C72.892 33.1334 72.7068 33.1334 72.5093 33.148V35.9159Z" fill="white"/>
<path d="M80.7329 29.253C81.2343 29.2382 81.732 29.3413 82.1853 29.5539C82.6387 29.7664 83.0346 30.0822 83.3408 30.4756C83.8909 31.1535 84.186 31.9997 84.1755 32.8693C84.1678 33.5364 84.0109 34.1936 83.7162 34.7936C83.459 35.3849 83.0295 35.8868 82.4827 36.2352C81.9359 36.5837 81.2966 36.7628 80.6465 36.7496C80.1458 36.7638 79.6493 36.6549 79.2015 36.4326C78.7538 36.2103 78.3686 35.8815 78.0806 35.4758C77.5505 34.7814 77.2674 33.9328 77.2755 33.0625C77.2834 32.3882 77.4527 31.7253 77.7694 31.1284C78.0283 30.5657 78.4455 30.0888 78.9711 29.7549C79.4967 29.4209 80.1084 29.2441 80.7329 29.2457V29.253ZM80.486 29.7567C80.1914 29.7626 79.9039 29.8471 79.6537 30.0012C79.3416 30.2059 79.105 30.5053 78.9795 30.8545C78.7961 31.3572 78.7122 31.8902 78.7326 32.4243C78.7085 33.351 78.9217 34.2687 79.3524 35.0919C79.7673 35.8254 80.3106 36.2117 80.9873 36.2117C81.2304 36.215 81.4707 36.1605 81.6881 36.0529C81.9055 35.9452 82.0937 35.7876 82.2369 35.5931C82.5654 35.1799 82.7308 34.4733 82.7308 33.4683C82.7308 32.2116 82.4575 31.2221 81.9109 30.5C81.7553 30.269 81.544 30.08 81.296 29.9503C81.0481 29.8205 80.7714 29.7539 80.4909 29.7567H80.486Z" fill="white"/>
<path d="M86.981 34.3608L90.0729 30.8228C90.0935 30.5291 90.0135 30.237 89.8457 29.9939C89.7485 29.9062 89.6341 29.8392 89.5096 29.7971C89.3851 29.755 89.2532 29.7388 89.1221 29.7494V29.4609H92.4462V29.7567C92.2075 29.7379 91.9677 29.773 91.7448 29.8594C91.6316 29.9227 91.5352 30.0115 91.4633 30.1186C91.3941 30.2213 91.362 30.5563 91.362 31.1235V34.8792C91.3371 35.2075 91.3655 35.5377 91.446 35.8572C91.5121 35.97 91.6044 36.0655 91.7152 36.136C91.9476 36.2382 92.2028 36.2795 92.456 36.2558V36.5418H88.9986V36.2558C89.4308 36.2558 89.7197 36.1775 89.8654 36.0113C90.0112 35.845 90.0828 35.4758 90.0828 34.8719V31.5392L86.9909 35.087C86.9733 35.3988 87.038 35.7097 87.1785 35.9893C87.2946 36.1555 87.5416 36.2338 87.9194 36.2338V36.5198H84.6102V36.2338C85.072 36.2338 85.3683 36.1482 85.4992 35.9893C85.6301 35.8303 85.6943 35.4464 85.6943 34.8645V31.1235C85.7198 30.795 85.6906 30.4646 85.6079 30.1455C85.542 30.0362 85.4516 29.9433 85.3436 29.8741C85.1106 29.7737 84.8558 29.7334 84.6028 29.7567V29.4609H88.0602V29.7567C87.8208 29.7382 87.5802 29.7733 87.3564 29.8594C87.2442 29.924 87.148 30.0125 87.0748 30.1186C87.0081 30.2213 86.9736 30.5563 86.9736 31.1235L86.981 34.3608Z" fill="white"/>
<path d="M102.413 33.8522C102.283 34.6723 101.886 35.4278 101.282 36.0039C100.781 36.4822 100.114 36.7517 99.4178 36.757C99.0102 36.7541 98.6084 36.6618 98.2411 36.4868C97.8739 36.3118 97.5504 36.0583 97.2939 35.7447C96.6914 35.0699 96.3901 34.1579 96.3901 33.0087C96.3688 32.5136 96.4464 32.0193 96.6184 31.5539C96.7905 31.0886 97.0536 30.6615 97.3927 30.2971C97.6969 29.9647 98.0688 29.6998 98.4838 29.5199C98.8988 29.3399 99.3475 29.249 99.8006 29.253C100.425 29.2281 101.038 29.424 101.529 29.8056C101.984 30.1748 102.208 30.5563 102.208 30.9548C102.212 31.0426 102.196 31.1301 102.164 31.2118C102.131 31.2935 102.081 31.3675 102.018 31.4292C101.871 31.5573 101.678 31.6224 101.482 31.6101C101.351 31.619 101.22 31.597 101.1 31.546C100.979 31.495 100.872 31.4164 100.788 31.3167C100.675 31.1297 100.615 30.9161 100.613 30.6981C100.603 30.4347 100.49 30.1856 100.297 30.0037C100.081 29.8381 99.8115 29.7556 99.5388 29.7714C99.2991 29.7637 99.061 29.8115 98.8433 29.9108C98.6255 30.0101 98.4341 30.1583 98.2842 30.3435C97.8401 30.9146 97.6159 31.6237 97.652 32.3436C97.6358 33.1348 97.8539 33.9134 98.2793 34.5833C98.448 34.8816 98.6943 35.1297 98.9927 35.3017C99.2911 35.4737 99.6306 35.5634 99.9759 35.5614C100.483 35.5634 100.974 35.3786 101.351 35.043C101.722 34.6794 102.007 34.2394 102.186 33.7544L102.413 33.8522Z" fill="white"/>
<path d="M102.851 29.4609H109.024L109.338 31.3778H108.987C108.949 31.0607 108.842 30.7556 108.674 30.4829C108.558 30.2953 108.385 30.1489 108.18 30.0648C107.867 29.9836 107.543 29.9498 107.219 29.9646H106.594V34.8792C106.571 35.2157 106.604 35.5537 106.693 35.8792C106.721 35.9469 106.764 36.0075 106.819 36.0566C106.873 36.1057 106.939 36.142 107.009 36.1629C107.334 36.2274 107.665 36.2586 107.997 36.2558V36.5418H104.12V36.2558C104.614 36.2558 104.942 36.1653 105.085 36.0113C105.229 35.8572 105.3 35.4831 105.3 34.8743V29.9597H104.658C104.352 29.945 104.046 29.9722 103.747 30.0404C103.555 30.1178 103.393 30.2529 103.283 30.4267C103.098 30.716 102.969 31.0369 102.902 31.3729H102.552L102.851 29.4609Z" fill="white"/>
<path d="M110.667 32.1284C110.667 33.1798 110.924 34.0038 111.44 34.6004C111.657 34.877 111.935 35.1015 112.252 35.2568C112.569 35.4122 112.918 35.4946 113.272 35.4978C113.711 35.5074 114.141 35.3733 114.495 35.1163C114.904 34.7692 115.206 34.315 115.366 33.8058L115.613 33.9598C115.497 34.6821 115.166 35.3537 114.662 35.889C114.418 36.1683 114.114 36.3908 113.772 36.5408C113.431 36.6909 113.06 36.7646 112.687 36.757C112.268 36.7599 111.855 36.6726 111.474 36.5012C111.093 36.3298 110.754 36.0783 110.481 35.7643C109.871 35.1008 109.565 34.2108 109.565 33.0942C109.565 31.8831 109.879 30.9393 110.506 30.2628C110.802 29.934 111.166 29.6727 111.574 29.4971C111.981 29.3215 112.423 29.2357 112.867 29.2457C113.233 29.2332 113.598 29.2966 113.939 29.4318C114.279 29.5669 114.587 29.7709 114.843 30.0305C115.106 30.3114 115.311 30.6418 115.444 31.0021C115.576 31.3624 115.635 31.7454 115.616 32.1284H110.667ZM110.667 31.6785H113.976C113.973 31.3531 113.917 31.0303 113.81 30.7225C113.689 30.4434 113.487 30.2061 113.23 30.0403C112.991 29.883 112.71 29.798 112.423 29.7958C112.206 29.7959 111.991 29.8393 111.792 29.9233C111.592 30.0073 111.412 30.1303 111.262 30.2848C110.901 30.6637 110.69 31.1583 110.667 31.6785Z" fill="white"/>
<path d="M123.254 36.5418H121.145C120.497 35.6093 119.904 34.6412 119.367 33.6419C119.272 33.4618 119.157 33.2922 119.026 33.1358C118.973 33.0798 118.908 33.0359 118.836 33.0072C118.764 32.9785 118.686 32.9656 118.609 32.9695C118.547 32.9695 118.448 32.9695 118.312 32.9867V34.8791C118.292 35.2077 118.322 35.5375 118.401 35.8572C118.431 35.9274 118.475 35.9907 118.531 36.0433C118.587 36.0959 118.653 36.1366 118.725 36.1628C118.981 36.2376 119.248 36.269 119.515 36.2557V36.5418H115.939V36.2557C116.404 36.2557 116.7 36.1702 116.828 36.0112C116.957 35.8523 117.023 35.4684 117.023 34.8865V31.1235C117.049 30.7951 117.021 30.4648 116.939 30.1455C116.873 30.0356 116.782 29.9426 116.673 29.8741C116.44 29.7727 116.185 29.7322 115.932 29.7567V29.4608H119.508V29.7567C119.237 29.7321 118.965 29.7638 118.708 29.8496C118.605 29.9116 118.512 29.9882 118.431 30.077C118.347 30.1675 118.305 30.5147 118.305 31.1235V32.5172C118.424 32.5172 118.505 32.5319 118.552 32.5319C118.87 32.5318 119.181 32.4391 119.446 32.2654C119.725 32.0893 119.972 31.7103 120.187 31.1333C120.311 30.7484 120.477 30.3779 120.681 30.0281C120.822 29.8284 121.013 29.6677 121.234 29.5611C121.462 29.442 121.717 29.3798 121.975 29.3801C122.216 29.3673 122.453 29.4382 122.647 29.5806C122.717 29.6395 122.775 29.7119 122.817 29.7934C122.859 29.8749 122.884 29.9639 122.891 30.0552C122.897 30.1464 122.885 30.238 122.855 30.3245C122.825 30.411 122.778 30.4906 122.716 30.5587C122.651 30.6228 122.574 30.6727 122.489 30.7051C122.404 30.7376 122.313 30.7518 122.222 30.747C122.074 30.741 121.929 30.7096 121.792 30.654C121.634 30.5913 121.468 30.5526 121.298 30.5391C121.051 30.5391 120.861 30.7421 120.706 31.1504C120.597 31.4618 120.466 31.765 120.313 32.0575C120.177 32.2574 120.018 32.4405 119.839 32.6028C120.041 32.676 120.222 32.7979 120.365 32.9573C120.768 33.467 121.122 34.013 121.422 34.5882C121.674 35.0766 121.985 35.5331 122.348 35.9477C122.597 36.1552 122.916 36.2633 123.242 36.2508L123.254 36.5418Z" fill="white"/>
<path d="M124.101 29.4609H130.492V29.7567C130.253 29.7371 130.012 29.7723 129.789 29.8594C129.677 29.9234 129.581 30.0121 129.51 30.1186C129.443 30.2213 129.408 30.5563 129.408 31.1235V34.8792C129.384 35.2077 129.413 35.538 129.495 35.8572C129.562 35.9711 129.656 36.0668 129.769 36.136C129.997 36.2371 130.248 36.2783 130.497 36.2558V36.5418H126.805V36.2558C127.084 36.2663 127.364 36.245 127.638 36.1922C127.716 36.1707 127.788 36.1333 127.851 36.0823C127.913 36.0313 127.964 35.968 128.001 35.8963C128.115 35.57 128.16 35.2236 128.132 34.8792V29.9646H125.751V32.9476C125.776 33.7427 125.725 34.5384 125.6 35.3242C125.533 35.7232 125.319 36.0835 125 36.3365C124.703 36.5538 124.342 36.6689 123.973 36.6641C123.306 36.6641 122.973 36.3927 122.973 35.845C122.966 35.6788 123.023 35.5162 123.133 35.3902C123.185 35.3317 123.249 35.2854 123.322 35.2545C123.394 35.2236 123.472 35.209 123.55 35.2117C123.646 35.2141 123.74 35.2352 123.828 35.2738C123.915 35.3124 123.994 35.3677 124.059 35.4367C124.262 35.6323 124.415 35.7301 124.519 35.7301C124.753 35.7301 124.924 35.5345 125.03 35.1457C125.162 34.4727 125.216 33.7868 125.19 33.1016V31.5392C125.19 30.734 125.132 30.2449 125.015 30.0721C124.899 29.8985 124.598 29.791 124.114 29.7567L124.101 29.4609Z" fill="white"/>
<path d="M134.915 35.5198C134.48 35.8781 134.018 36.2049 133.535 36.4978C133.253 36.6271 132.946 36.6931 132.636 36.691C132.408 36.6976 132.182 36.6561 131.971 36.5692C131.761 36.4824 131.572 36.3522 131.416 36.1873C131.085 35.8275 130.912 35.3528 130.934 34.8669C130.927 34.5521 131.008 34.2414 131.169 33.9696C131.455 33.5592 131.837 33.2235 132.283 32.9916C133.127 32.5422 134.007 32.1643 134.915 31.8619V31.5832C134.915 30.879 134.803 30.3949 134.577 30.1308C134.453 29.9964 134.299 29.8912 134.128 29.8231C133.957 29.755 133.773 29.7256 133.589 29.7371C133.305 29.7224 133.026 29.816 132.809 29.9988C132.718 30.0718 132.644 30.1638 132.593 30.2681C132.542 30.3725 132.514 30.4867 132.513 30.6027L132.527 31.0502C132.54 31.25 132.475 31.4469 132.345 31.6003C132.283 31.6642 132.208 31.7144 132.125 31.7477C132.042 31.781 131.953 31.7966 131.863 31.7935C131.774 31.7957 131.686 31.7789 131.605 31.7443C131.524 31.7097 131.451 31.6581 131.391 31.593C131.263 31.4388 131.198 31.2424 131.209 31.0428C131.221 30.8005 131.289 30.5642 131.408 30.3522C131.527 30.1402 131.694 29.9582 131.895 29.8203C132.354 29.4486 132.997 29.2628 133.824 29.2628C134.362 29.2418 134.898 29.3509 135.385 29.5807C135.693 29.743 135.934 30.008 136.064 30.3289C136.185 30.7714 136.233 31.2306 136.205 31.6883V34.0918C136.193 34.5063 136.207 34.921 136.244 35.334C136.252 35.447 136.297 35.5543 136.372 35.6396C136.429 35.6894 136.502 35.7164 136.577 35.7154C136.654 35.7177 136.73 35.6991 136.797 35.6616C137.024 35.4924 137.235 35.3042 137.429 35.0992V35.5296C136.847 36.3038 136.29 36.691 135.76 36.691C135.645 36.6958 135.53 36.6745 135.424 36.6288C135.318 36.583 135.225 36.514 135.15 36.4269C134.971 36.1594 134.888 35.8397 134.915 35.5198ZM134.915 35.0185V32.3289C134.396 32.5202 133.889 32.7397 133.394 32.9867C133.051 33.1552 132.75 33.3974 132.513 33.6957C132.339 33.9315 132.246 34.2158 132.246 34.5075C132.235 34.8467 132.355 35.1774 132.582 35.4318C132.676 35.5448 132.794 35.6361 132.927 35.6994C133.061 35.7628 133.207 35.7966 133.355 35.7985C133.75 35.7936 134.27 35.5336 134.915 35.0185Z" fill="white"/>
<path d="M66.5477 43.9774H64.819V46.7452C64.805 46.93 64.8216 47.1159 64.8684 47.2953C64.9037 47.3598 64.9557 47.4138 65.019 47.4518C65.1473 47.5097 65.2886 47.5333 65.429 47.5203V47.6768H63.4829V47.5154C63.7447 47.5154 63.9102 47.469 63.9769 47.3736C64.0715 47.1765 64.1091 46.9573 64.0855 46.7403V44.6253C64.1001 44.4406 64.0842 44.2548 64.0386 44.0752C64.0017 44.0132 63.9499 43.9611 63.888 43.9236C63.759 43.8652 63.6167 43.8416 63.4755 43.8551V43.6888H67.8887V43.8551C67.7542 43.8442 67.6189 43.8643 67.4935 43.9138C67.4293 43.9488 67.3749 43.9992 67.3355 44.0605C67.2788 44.2432 67.2586 44.435 67.2762 44.6253V46.7403C67.2622 46.9251 67.2789 47.111 67.3256 47.2905C67.3616 47.3544 67.4135 47.4082 67.4763 47.4469C67.6054 47.5047 67.7475 47.5283 67.8887 47.5154V47.6768H65.9402V47.5154C66.0272 47.5268 66.1157 47.521 66.2005 47.4984C66.2853 47.4757 66.3647 47.4366 66.4341 47.3834C66.5413 47.1868 66.5844 46.9621 66.5576 46.7403L66.5477 43.9774Z" fill="white"/>
<path d="M67.8096 44.0898L69.0444 43.6008H69.2099V44.53C69.3637 44.2439 69.5776 43.9938 69.8372 43.7964C70.0304 43.6597 70.2615 43.5855 70.499 43.5837C70.6925 43.5814 70.8839 43.6228 71.0589 43.7045C71.2339 43.7863 71.3878 43.9063 71.5091 44.0556C71.8532 44.4777 72.0289 45.0102 72.003 45.552C72.0281 46.1766 71.8148 46.7877 71.4054 47.2636C71.2534 47.4402 71.064 47.5813 70.8505 47.6768C70.637 47.7724 70.4048 47.8199 70.1706 47.8162C69.9787 47.8199 69.7878 47.7884 69.6075 47.7232C69.4611 47.6601 69.3272 47.5715 69.2124 47.4616V48.6842C69.2006 48.8594 69.2181 49.0354 69.2642 49.205C69.3003 49.282 69.3623 49.3442 69.4396 49.381C69.585 49.433 69.7397 49.4546 69.894 49.4446V49.606H67.7825V49.4446H67.8911C68.0352 49.4526 68.1787 49.4213 68.306 49.3541C68.3648 49.3182 68.4099 49.264 68.4345 49.2001C68.4778 49.0226 68.4936 48.8395 68.4814 48.6573V44.8698C68.489 44.706 68.4774 44.5419 68.4468 44.3808C68.4278 44.3175 68.3878 44.2623 68.3332 44.2243C68.2711 44.1861 68.1988 44.1674 68.1258 44.1705C68.0332 44.176 67.9422 44.1966 67.8566 44.2317L67.8096 44.0898ZM69.2148 44.7818V46.2709C69.2075 46.4835 69.2207 46.6964 69.2543 46.9066C69.3022 47.0832 69.4083 47.2389 69.5556 47.3491C69.7279 47.4824 69.9423 47.5508 70.1607 47.5423C70.2979 47.5455 70.434 47.5163 70.5577 47.4572C70.6813 47.3981 70.789 47.3108 70.8719 47.2024C71.1323 46.8431 71.262 46.407 71.2399 45.9652C71.2732 45.4647 71.131 44.9681 70.8373 44.5593C70.7598 44.4556 70.6589 44.3712 70.5428 44.3126C70.4267 44.2541 70.2984 44.223 70.1681 44.2219C70.0227 44.2231 69.8798 44.2583 69.7507 44.3246C69.5516 44.4517 69.3713 44.6056 69.2148 44.7818Z" fill="white"/>
<path d="M74.2997 43.5764C74.5819 43.5683 74.8619 43.6266 75.1169 43.7465C75.3719 43.8663 75.5946 44.0443 75.7666 44.2659C76.0763 44.6474 76.2422 45.1237 76.2358 45.6131C76.2316 45.9887 76.143 46.3587 75.9765 46.6963C75.8328 47.0305 75.5914 47.3146 75.2833 47.512C74.9753 47.7093 74.6147 47.811 74.2478 47.8039C73.9654 47.8121 73.6852 47.7507 73.4327 47.6252C73.1801 47.4998 72.9629 47.3141 72.8007 47.0851C72.5029 46.6918 72.3449 46.2121 72.3512 45.7207C72.3546 45.3409 72.4485 44.9673 72.6253 44.6302C72.7824 44.2987 73.0339 44.02 73.3489 43.8282C73.6374 43.6617 73.9657 43.5747 74.2997 43.5764ZM74.1614 43.86C73.9962 43.8631 73.8349 43.9104 73.6946 43.9969C73.5169 44.1139 73.3832 44.2859 73.3143 44.4859C73.2084 44.768 73.1589 45.0678 73.1686 45.3686C73.1543 45.8905 73.275 46.4073 73.5193 46.8699C73.7515 47.2904 74.0577 47.5007 74.438 47.5007C74.5748 47.5029 74.7102 47.4725 74.8326 47.412C74.9551 47.3516 75.0612 47.263 75.1418 47.1535C75.3279 46.9204 75.4201 46.5211 75.4184 45.9554C75.4524 45.3638 75.2902 44.7774 74.9566 44.2854C74.8703 44.1546 74.7523 44.0472 74.6135 43.9729C74.4746 43.8986 74.3192 43.8598 74.1614 43.86Z" fill="white"/>
<path d="M77.8164 46.4542L79.5574 44.4615C79.5692 44.2959 79.524 44.1313 79.429 43.9945C79.3739 43.9458 79.3093 43.9088 79.2393 43.8857C79.1692 43.8626 79.0951 43.8538 79.0215 43.86V43.6937H80.8935V43.86C80.759 43.8493 80.6238 43.8694 80.4983 43.9187C80.4345 43.9543 80.3803 44.0046 80.3403 44.0654C80.285 44.2483 80.2657 44.4401 80.2835 44.6302V46.7452C80.2692 46.9299 80.2851 47.1156 80.3304 47.2953C80.3667 47.3599 80.4195 47.4139 80.4835 47.4518C80.6118 47.5097 80.7531 47.5333 80.8935 47.5203V47.6768H78.9474V47.5154C79.0345 47.5269 79.123 47.5212 79.2078 47.4985C79.2926 47.4759 79.372 47.4367 79.4414 47.3834C79.5485 47.1868 79.5917 46.9621 79.5648 46.7403V44.8649L77.8238 46.8626C77.8141 47.0383 77.8507 47.2136 77.93 47.3711C77.9834 47.4256 78.049 47.467 78.1214 47.4921C78.1939 47.5171 78.2712 47.5251 78.3473 47.5154V47.6768H76.4877V47.5154C76.7495 47.5154 76.9175 47.469 76.9817 47.3736C77.0775 47.1769 77.116 46.9575 77.0928 46.7403V44.6253C77.1072 44.4405 77.0905 44.2546 77.0434 44.0752C77.0068 44.0138 76.956 43.9618 76.8952 43.9236C76.7653 43.8653 76.6223 43.8417 76.4803 43.8551V43.6888H78.4288V43.8551C78.2943 43.8442 78.1591 43.8643 78.0337 43.9138C77.9692 43.9494 77.9142 43.9997 77.8732 44.0605C77.8192 44.2437 77.8 44.4352 77.8164 44.6253V46.4542Z" fill="white"/>
<path d="M81.1948 44.9432V43.6937H81.38C81.4031 43.7164 81.4304 43.7343 81.4605 43.7465C81.4906 43.7587 81.5228 43.7648 81.5553 43.7646C81.6661 43.7518 81.7753 43.728 81.8813 43.6937C82.1022 43.6248 82.3314 43.5853 82.5629 43.5764C82.9055 43.565 83.2435 43.658 83.531 43.8429C83.6518 43.917 83.7512 44.0208 83.8196 44.1442C83.8879 44.2676 83.9229 44.4064 83.9212 44.5471C83.9212 44.997 83.5763 45.323 82.8864 45.5251C83.689 45.6889 84.0916 46.063 84.0916 46.6425C84.0903 46.7969 84.0549 46.9491 83.9879 47.0884C83.9209 47.2278 83.824 47.351 83.7039 47.4494C83.3881 47.7038 82.9863 47.8297 82.5802 47.8015C82.2867 47.807 81.9956 47.7477 81.7282 47.6279C81.4337 47.4767 81.1646 47.2812 80.9305 47.0484L81.0466 46.9335C81.4267 47.2634 81.9075 47.458 82.4123 47.4861C82.5253 47.4904 82.6379 47.4709 82.7427 47.4287C82.8474 47.3866 82.9419 47.3228 83.0198 47.2416C83.1016 47.1557 83.1656 47.0548 83.208 46.9444C83.2504 46.8341 83.2703 46.7165 83.2667 46.5985C83.2667 46.0198 82.8897 45.7134 82.1357 45.6792V45.4346C82.2775 45.4478 82.4206 45.4294 82.5543 45.3807C82.6881 45.3321 82.8091 45.2544 82.9086 45.1535C83.0613 44.9889 83.149 44.7753 83.1556 44.552C83.1549 44.3686 83.0813 44.1929 82.9506 44.0629C82.8806 43.9911 82.7959 43.9348 82.7023 43.8977C82.6086 43.8606 82.5081 43.8436 82.4073 43.8478C81.8862 43.8478 81.5405 44.2194 81.3701 44.9579L81.1948 44.9432Z" fill="white"/>
<path d="M86.9464 45.574C87.6873 45.7256 88.0503 46.063 88.0503 46.5985C88.058 46.7628 88.019 46.9259 87.9378 47.0694C87.8566 47.2129 87.7365 47.331 87.591 47.4103C87.1936 47.6107 86.7495 47.7027 86.3043 47.6768H84.3287V47.5154C84.5756 47.5154 84.7534 47.4665 84.8226 47.3687C84.9117 47.1717 84.9475 46.9552 84.9263 46.7403V44.6253C84.9397 44.4398 84.9238 44.2534 84.8794 44.0727C84.8429 44.0127 84.793 43.9617 84.7337 43.9236C84.6073 43.8653 84.4674 43.8417 84.3287 43.8551V43.6889H86.1833C86.4745 43.6831 86.7654 43.711 87.0501 43.772C87.2622 43.8218 87.4532 43.9365 87.5959 44.0996C87.7382 44.2641 87.8138 44.4749 87.8083 44.6913C87.805 45.1461 87.5177 45.4403 86.9464 45.574ZM85.6499 45.4738H85.882C86.1904 45.5003 86.4986 45.4199 86.7538 45.2464C86.8373 45.1795 86.9046 45.0949 86.9508 44.9988C86.9969 44.9028 87.0208 44.7977 87.0205 44.6913C87.0295 44.5843 87.0089 44.4768 86.9611 44.3803C86.9133 44.2839 86.8399 44.2021 86.7488 44.1436C86.4799 44.0101 86.1796 43.9509 85.8795 43.9725H85.6499V45.4738ZM85.6499 47.3296C85.8198 47.3788 85.9964 47.4019 86.1734 47.398C86.4522 47.4198 86.7292 47.3389 86.9513 47.1707C87.0337 47.098 87.0986 47.008 87.1413 46.9073C87.184 46.8067 87.2035 46.6978 87.1983 46.5887C87.2033 46.4668 87.1755 46.3458 87.1178 46.2379C87.0601 46.1301 86.9745 46.0394 86.8699 45.975C86.5914 45.8186 86.2733 45.7447 85.9536 45.7623H85.6425L85.6499 47.3296Z" fill="white"/>
<path d="M90.2803 43.5763C90.5626 43.5677 90.8428 43.6257 91.0979 43.7456C91.353 43.8655 91.5756 44.0439 91.7473 44.2659C92.0576 44.6471 92.2244 45.1234 92.2189 45.6131C92.2151 45.9896 92.1265 46.3604 91.9596 46.6987C91.8159 47.033 91.5745 47.317 91.2664 47.5144C90.9584 47.7118 90.5978 47.8134 90.2309 47.8063C89.9489 47.8141 89.6693 47.7525 89.4171 47.6271C89.165 47.5016 88.9482 47.3162 88.7862 47.0875C88.4892 46.6966 88.3303 46.2197 88.3343 45.7305C88.3377 45.3507 88.4316 44.977 88.6084 44.64C88.7546 44.3227 88.9901 44.0539 89.2866 43.8657C89.5831 43.6775 89.9281 43.5779 90.2803 43.5788V43.5763ZM90.1445 43.86C89.9786 43.8634 89.8166 43.9107 89.6753 43.9969C89.4985 44.115 89.3651 44.2865 89.295 44.4859C89.1899 44.7682 89.1413 45.068 89.1517 45.3686C89.1379 45.8901 89.2577 46.4066 89.4999 46.8699C89.5767 47.0511 89.7042 47.2068 89.8674 47.3186C90.0306 47.4304 90.2228 47.4936 90.4211 47.5007C90.5578 47.5025 90.6931 47.4719 90.8155 47.4115C90.9379 47.3511 91.044 47.2626 91.1249 47.1535C91.3077 46.9212 91.4015 46.5227 91.4015 45.9554C91.4342 45.3639 91.2722 44.7779 90.9397 44.2854C90.8532 44.1547 90.7353 44.0474 90.5964 43.9732C90.4576 43.8989 90.3023 43.86 90.1445 43.86Z" fill="white"/>
<path d="M92.8314 43.6937H96.3827V43.86C96.2473 43.8489 96.1112 43.869 95.9851 43.9187C95.922 43.9544 95.8686 44.0047 95.8295 44.0654C95.7755 44.2486 95.7563 44.4401 95.7727 44.6302V46.6009C95.7451 46.8608 95.7815 47.1234 95.8789 47.3662C95.9513 47.4592 96.1159 47.5105 96.3728 47.5203V48.7868H96.2073C96.2009 48.5673 96.1389 48.3529 96.027 48.1633C95.9265 47.9919 95.7696 47.8599 95.5825 47.7892C95.3092 47.7062 95.0236 47.6699 94.7379 47.6817H93.713C93.4584 47.6733 93.2039 47.7013 92.9574 47.7648C92.7692 47.8276 92.6086 47.9528 92.503 48.1193C92.3753 48.3207 92.2991 48.5498 92.2807 48.7868H92.1177V47.5203C92.3639 47.5099 92.5974 47.4087 92.7721 47.2367C93.0336 46.9344 93.2122 46.5707 93.2907 46.1804C93.4379 45.6765 93.5135 45.1547 93.5155 44.6302C93.5155 44.1314 93.2883 43.8747 92.8339 43.86L92.8314 43.6937ZM93.8019 43.9774V44.2219C93.8019 45.6482 93.5418 46.7077 93.0216 47.4005H94.5157C94.7848 47.4005 94.9404 47.3785 94.9799 47.332C95.0395 47.1762 95.0607 47.0085 95.0417 46.843V43.9774H93.8019Z" fill="white"/>
<path d="M97.8496 46.4542L99.5906 44.4615C99.6024 44.2959 99.5572 44.1313 99.4622 43.9945C99.4067 43.9456 99.3417 43.9085 99.2712 43.8854C99.2008 43.8623 99.1262 43.8536 99.0523 43.86V43.6937H100.927V43.86C100.791 43.8494 100.655 43.8695 100.529 43.9187C100.466 43.955 100.412 44.0052 100.371 44.0654C100.317 44.2486 100.298 44.4401 100.314 44.6302V46.7452C100.3 46.93 100.317 47.1159 100.364 47.2953C100.399 47.3598 100.451 47.4138 100.514 47.4518C100.643 47.5096 100.786 47.5331 100.927 47.5203V47.6768H98.9782V47.5154C99.0652 47.5268 99.1537 47.521 99.2385 47.4984C99.3233 47.4757 99.4027 47.4366 99.4721 47.3834C99.5793 47.1868 99.6224 46.9621 99.5956 46.7403V44.8649L97.8545 46.8626C97.843 47.0385 97.8797 47.2142 97.9607 47.3711C98.0142 47.4256 98.0797 47.467 98.1522 47.4921C98.2246 47.5171 98.302 47.5251 98.3781 47.5154V47.6768H96.5185V47.5154C96.7778 47.5154 96.9457 47.469 97.0124 47.3736C97.1058 47.1761 97.1433 46.9573 97.121 46.7403V44.6253C97.1356 44.4406 97.1197 44.2548 97.0741 44.0752C97.0365 44.0137 96.9849 43.9618 96.9235 43.9236C96.7945 43.8652 96.6522 43.8416 96.5111 43.8551V43.6888H98.4571V43.8551C98.3226 43.8444 98.1874 43.8645 98.062 43.9138C97.9982 43.9494 97.944 43.9998 97.9039 44.0605C97.85 44.2437 97.8307 44.4352 97.8471 44.6253L97.8496 46.4542Z" fill="white"/>
<path d="M101.077 43.6937H104.559L104.735 44.7745H104.537C104.515 44.5951 104.455 44.4224 104.359 44.2683C104.294 44.16 104.197 44.0745 104.08 44.0238C103.904 43.9784 103.722 43.9594 103.539 43.9676H103.186V46.7354C103.174 46.9255 103.193 47.1163 103.243 47.3002C103.259 47.338 103.283 47.3717 103.314 47.3988C103.345 47.4259 103.381 47.4457 103.421 47.4567C103.605 47.4946 103.793 47.5126 103.982 47.5105V47.6768H101.794V47.5154C101.985 47.5343 102.177 47.4867 102.337 47.3809C102.444 47.1852 102.486 46.9611 102.458 46.7403V43.9774H102.11C101.937 43.9684 101.764 43.984 101.596 44.0238C101.488 44.0673 101.396 44.1435 101.334 44.2414C101.23 44.4043 101.157 44.5851 101.119 44.7745H100.922L101.077 43.6937Z" fill="white"/>
<path d="M105.481 45.195C105.448 45.6967 105.602 46.1928 105.915 46.5887C106.038 46.7442 106.194 46.8702 106.373 46.9574C106.552 47.0446 106.748 47.0908 106.947 47.0924C107.195 47.0981 107.437 47.0224 107.637 46.8772C107.869 46.6845 108.04 46.4299 108.13 46.1437L108.266 46.2293C108.201 46.636 108.014 47.0141 107.73 47.3149C107.593 47.4723 107.422 47.5977 107.23 47.6822C107.038 47.7667 106.829 47.8083 106.619 47.8039C106.385 47.8041 106.153 47.7542 105.94 47.6576C105.727 47.5609 105.537 47.4199 105.384 47.244C105.025 46.8263 104.84 46.2883 104.868 45.7403C104.832 45.1615 105.021 44.5911 105.397 44.1461C105.563 43.9609 105.769 43.8138 105.999 43.715C106.228 43.6162 106.477 43.5681 106.728 43.5739C106.934 43.5667 107.139 43.6021 107.33 43.6779C107.522 43.7537 107.695 43.8682 107.839 44.014C107.987 44.1722 108.102 44.3582 108.177 44.561C108.251 44.7639 108.284 44.9794 108.274 45.195H105.481ZM105.481 44.9505H107.343C107.341 44.7675 107.311 44.5859 107.251 44.4126C107.183 44.2552 107.068 44.1215 106.923 44.0287C106.789 43.9388 106.63 43.8903 106.468 43.8893C106.346 43.8901 106.225 43.9154 106.113 43.9638C106.001 44.0121 105.9 44.0824 105.816 44.1705C105.616 44.3806 105.497 44.6544 105.481 44.9432V44.9505Z" fill="white"/>
<path d="M108.94 43.6937H112.541V43.86C112.406 43.8486 112.27 43.8687 112.143 43.9187C112.08 43.9544 112.027 44.0047 111.988 44.0654C111.931 44.248 111.911 44.4399 111.929 44.6302V46.7452C111.915 46.93 111.931 47.1159 111.978 47.2953C112.013 47.3598 112.065 47.4138 112.129 47.4518C112.258 47.5096 112.4 47.5331 112.541 47.5203V47.6768H110.457V47.5154C110.614 47.5209 110.771 47.5094 110.926 47.4812C110.97 47.4682 111.01 47.4466 111.045 47.4176C111.08 47.3885 111.108 47.3528 111.128 47.3125C111.195 47.1294 111.221 46.9343 111.205 46.7403V43.9774H109.864V45.6571C109.878 46.1046 109.849 46.5524 109.778 46.9946C109.746 47.2101 109.634 47.4063 109.465 47.5457C109.296 47.6851 109.081 47.7579 108.861 47.7501C108.486 47.7501 108.298 47.5961 108.298 47.2905C108.295 47.1966 108.328 47.1049 108.39 47.0337C108.419 47.0006 108.455 46.9744 108.495 46.957C108.536 46.9397 108.58 46.9316 108.624 46.9335C108.733 46.9359 108.836 46.9807 108.911 47.0582C109.024 47.1682 109.111 47.2244 109.158 47.2244C109.289 47.2244 109.385 47.1144 109.444 46.8943C109.52 46.5162 109.551 46.1304 109.536 45.7452V44.8649C109.561 44.5856 109.528 44.3042 109.437 44.0385C109.37 43.9407 109.19 43.8796 108.928 43.86L108.94 43.6937Z" fill="white"/>
<path d="M114.006 45.4762H114.499C115.695 45.4762 116.292 45.8421 116.292 46.574C116.295 46.7353 116.257 46.8946 116.18 47.0371C116.104 47.1795 115.992 47.3003 115.855 47.3882C115.477 47.6165 115.038 47.7241 114.596 47.6963H112.662V47.5349C112.924 47.5349 113.089 47.4885 113.156 47.3931C113.252 47.1964 113.29 46.9771 113.267 46.7598V44.6448C113.282 44.46 113.265 44.2741 113.218 44.0947C113.181 44.0333 113.13 43.9814 113.07 43.9431C112.94 43.8852 112.797 43.8616 112.655 43.8746V43.7084H114.761V43.8746C114.581 43.8611 114.4 43.8785 114.225 43.926C114.16 43.9558 114.103 44.0001 114.057 44.0556C113.992 44.2449 113.969 44.446 113.991 44.6448L114.006 45.4762ZM114.006 47.3418C114.158 47.3825 114.315 47.403 114.472 47.4029C114.731 47.4149 114.984 47.3331 115.186 47.1731C115.274 47.1027 115.344 47.0135 115.391 46.9123C115.439 46.811 115.462 46.7003 115.46 46.5887C115.46 46.0312 115.07 45.7549 114.287 45.7549H114.006V47.3418Z" fill="white"/>
<path d="M67.5923 58.0782H66.4045C66.0398 57.5535 65.705 57.009 65.4018 56.4473C65.3499 56.3449 65.2861 56.2489 65.2117 56.1612C65.1816 56.13 65.1451 56.1055 65.1046 56.0895C65.0641 56.0734 65.0206 56.0662 64.977 56.0683H64.8091V57.1344C64.7981 57.3191 64.8147 57.5045 64.8585 57.6845C64.8754 57.7243 64.9003 57.7602 64.9317 57.7901C64.9631 57.8199 65.0004 57.8431 65.0413 57.8581C65.1855 57.8996 65.3358 57.917 65.4858 57.9095V58.0708H63.4731V57.9095C63.7348 57.9095 63.9003 57.863 63.967 57.7676C64.0619 57.5706 64.0995 57.3513 64.0756 57.1344V55.0194C64.0902 54.8347 64.0743 54.6489 64.0287 54.4692C63.9918 54.4072 63.9401 54.3552 63.8781 54.3176C63.7487 54.2605 63.6068 54.237 63.4657 54.2492V54.0853H65.4784V54.2492C65.3264 54.2364 65.1734 54.2547 65.0289 54.3029C64.9706 54.337 64.9181 54.3799 64.8733 54.4301C64.8034 54.6183 64.7788 54.8201 64.8017 55.0194V55.8042H64.9375C65.1133 55.8027 65.2848 55.7509 65.4314 55.6551C65.6333 55.4892 65.7796 55.2667 65.8513 55.0169C65.9218 54.7999 66.0171 54.5915 66.1353 54.3959C66.215 54.2834 66.322 54.1926 66.4464 54.1318C66.5759 54.0643 66.72 54.0291 66.8663 54.0291C67.0015 54.0228 67.1348 54.0625 67.2441 54.1416C67.3078 54.1894 67.3542 54.2562 67.3766 54.3322C67.3989 54.4081 67.3961 54.4892 67.3684 54.5634C67.3408 54.6376 67.2898 54.7011 67.2229 54.7444C67.1561 54.7878 67.0769 54.8087 66.9972 54.8042C66.9125 54.8012 66.829 54.7838 66.7502 54.7528C66.6605 54.716 66.5655 54.6937 66.4687 54.6868C66.3353 54.6868 66.2242 54.8017 66.1353 55.0316C66.0743 55.2069 66.0009 55.3776 65.9155 55.5426C65.8384 55.654 65.7489 55.7566 65.6488 55.8482C65.7622 55.8908 65.8638 55.9595 65.9451 56.0487C66.171 56.336 66.3702 56.6429 66.5403 56.9656C66.6822 57.2413 66.8572 57.4991 67.0614 57.7334C67.1998 57.8472 67.3754 57.9071 67.5553 57.9021L67.5923 58.0782Z" fill="white"/>
<path d="M69.1679 53.9753C69.45 53.9662 69.7302 54.0237 69.9853 54.1432C70.2404 54.2627 70.4631 54.4407 70.6348 54.6624C70.9457 55.0443 71.1125 55.5216 71.1065 56.0121C71.1058 56.3867 71.0215 56.7566 70.8596 57.0952C70.7084 57.4346 70.4592 57.7222 70.1434 57.9217C69.8396 58.1082 69.4883 58.2049 69.1309 58.2004C68.8487 58.2086 68.569 58.1472 68.3168 58.0217C68.0646 57.8963 67.8479 57.7106 67.6862 57.4816C67.3872 57.0915 67.2274 56.6142 67.2318 56.1245C67.2349 55.7444 67.3298 55.3705 67.5084 55.034C67.6547 54.717 67.8902 54.4486 68.1868 54.2608C68.4833 54.073 68.8283 53.9739 69.1803 53.9753H69.1679ZM69.0321 54.2565C68.8661 54.2599 68.7042 54.3072 68.5629 54.3934C68.3861 54.5115 68.2527 54.6831 68.1826 54.8824C68.0766 55.1645 68.0271 55.4643 68.0368 55.7651C68.0234 56.2869 68.1441 56.8035 68.3875 57.2664C68.6197 57.6869 68.9267 57.8972 69.3087 57.8972C69.4451 57.8992 69.58 57.8687 69.7021 57.8082C69.8242 57.7478 69.9298 57.6593 70.01 57.55C70.1961 57.3169 70.2891 56.9184 70.2891 56.3544C70.3222 55.7621 70.1601 55.1752 69.8273 54.6819C69.7407 54.5514 69.6226 54.4442 69.4839 54.37C69.3451 54.2957 69.1898 54.2567 69.0321 54.2565Z" fill="white"/>
<path d="M72.6846 55.8727H74.4133V55.0267C74.4192 54.8631 74.4093 54.6993 74.3837 54.5376C74.3582 54.4562 74.3038 54.3868 74.2305 54.342C74.0983 54.2767 73.9505 54.2488 73.8033 54.2614V54.0975H75.7493V54.2614C75.614 54.2545 75.4786 54.2753 75.3517 54.3225C75.3134 54.3394 75.2788 54.3637 75.25 54.3939C75.2212 54.4241 75.1987 54.4597 75.1838 54.4985C75.1444 54.6733 75.1294 54.8527 75.1394 55.0316V57.1466C75.1323 57.3143 75.143 57.4823 75.1715 57.6478C75.1969 57.732 75.2545 57.803 75.332 57.8458C75.4623 57.9059 75.606 57.932 75.7493 57.9216V58.083H73.8033V57.9216C73.8904 57.9332 73.9789 57.9275 74.0637 57.9048C74.1485 57.8821 74.2279 57.843 74.2972 57.7896C74.406 57.5936 74.4492 57.3684 74.4207 57.1466V56.1685H72.692V57.1466C72.6853 57.3144 72.6969 57.4824 72.7266 57.6478C72.7387 57.6897 72.7591 57.7288 72.7867 57.7628C72.8142 57.7969 72.8484 57.8251 72.8871 57.8458C73.0173 57.9064 73.1611 57.9325 73.3045 57.9216V58.083H71.356V57.9216C71.6177 57.9216 71.7857 57.8752 71.8499 57.7798C71.946 57.5832 71.9845 57.3638 71.961 57.1466V55.0316C71.9669 54.8678 71.9553 54.7039 71.9264 54.5425C71.9146 54.5008 71.8942 54.4619 71.8666 54.4283C71.839 54.3947 71.8047 54.367 71.7659 54.3469C71.6357 54.2864 71.492 54.2603 71.3486 54.2711V54.1073H73.297V54.2711C73.1617 54.2643 73.0263 54.2851 72.8994 54.3323C72.8219 54.3671 72.7609 54.4301 72.729 54.5083C72.6896 54.6831 72.6747 54.8625 72.6846 55.0413V55.8727Z" fill="white"/>
<path d="M79.3895 56.5647C79.3149 57.0257 79.0913 57.4504 78.7523 57.775C78.4705 58.0448 78.0948 58.1971 77.7028 58.2004C77.4734 58.1987 77.2473 58.1468 77.0406 58.0483C76.834 57.9498 76.6519 57.8072 76.5075 57.6307C76.149 57.1984 75.9667 56.6489 75.9963 56.0903C75.9728 55.5268 76.1762 54.9772 76.5618 54.5621C76.733 54.3749 76.9424 54.2258 77.1761 54.1247C77.4098 54.0235 77.6626 53.9726 77.9176 53.9753C78.2697 53.958 78.6164 54.0655 78.8956 54.2785C79.0042 54.3508 79.0951 54.4463 79.1613 54.558C79.2276 54.6698 79.2676 54.7949 79.2784 54.924C79.2801 54.9739 79.2713 55.0235 79.2526 55.0698C79.2339 55.1161 79.2057 55.1581 79.1697 55.193C79.1289 55.229 79.0812 55.2567 79.0295 55.2743C78.9778 55.2919 78.923 55.2992 78.8684 55.2957C78.7947 55.3003 78.721 55.2876 78.6532 55.2588C78.5854 55.2299 78.5255 55.1855 78.4782 55.1294C78.4153 55.0242 78.3812 54.9045 78.3794 54.7822C78.3728 54.6334 78.3092 54.4927 78.2016 54.3885C78.0794 54.2963 77.9279 54.2503 77.7744 54.2589C77.6394 54.2547 77.5053 54.2817 77.3827 54.3377C77.2601 54.3938 77.1524 54.4773 77.0681 54.5817C76.8182 54.9038 76.6922 55.3033 76.7125 55.7089C76.7039 56.154 76.8276 56.5919 77.0681 56.9681C77.1633 57.1355 77.3023 57.2745 77.4705 57.3704C77.6386 57.4663 77.8298 57.5157 78.0238 57.5134C78.3089 57.5139 78.5841 57.4103 78.7968 57.2224C79.0064 57.015 79.1674 56.7646 79.2685 56.4889L79.3895 56.5647Z" fill="white"/>
<path d="M79.6365 54.0927H83.1186L83.2939 55.1709H83.0939C83.0735 54.9923 83.0137 54.8203 82.9185 54.6672C82.8536 54.558 82.7549 54.4723 82.637 54.4227C82.461 54.375 82.2784 54.3552 82.0961 54.3641H81.743V57.1319C81.7303 57.322 81.7495 57.5128 81.7998 57.6967C81.8161 57.7343 81.8404 57.768 81.8711 57.7955C81.9018 57.8229 81.9381 57.8434 81.9776 57.8556C82.163 57.8923 82.3517 57.9095 82.5407 57.907V58.0684H80.3502V57.907C80.5416 57.9271 80.7341 57.8795 80.8935 57.7725C81.0008 57.5769 81.0432 57.3527 81.0145 57.1319V54.3738H80.6539C80.4814 54.3663 80.3086 54.3819 80.1402 54.4203C80.0326 54.4646 79.9412 54.5406 79.8785 54.6379C79.7744 54.8008 79.7024 54.9816 79.6661 55.1709H79.4685L79.6365 54.0927Z" fill="white"/>
<path d="M83.1852 54.4888L84.42 53.9998H84.5879V54.9314C84.7413 54.6451 84.9553 54.3949 85.2152 54.1978C85.4087 54.0619 85.6398 53.9884 85.8771 53.9876C86.0704 53.9848 86.2618 54.0257 86.4367 54.107C86.6117 54.1883 86.7657 54.308 86.8871 54.457C87.2304 54.8796 87.4061 55.4117 87.381 55.9534C87.405 56.5778 87.1917 57.1885 86.7834 57.665C86.6315 57.8416 86.442 57.9827 86.2285 58.0782C86.015 58.1738 85.7829 58.2213 85.5486 58.2176C85.3567 58.2215 85.1658 58.19 84.9856 58.1246C84.8388 58.0632 84.7048 57.9753 84.5904 57.8655V59.088C84.5783 59.2633 84.5958 59.4393 84.6423 59.6088C84.6784 59.6858 84.7404 59.748 84.8176 59.7849C84.9625 59.8392 85.1175 59.8617 85.272 59.8509V60.0098H83.163V59.8509H83.2717C83.4158 59.8567 83.559 59.8246 83.6866 59.758C83.7453 59.722 83.7905 59.6679 83.815 59.6039C83.857 59.4262 83.8728 59.2433 83.8619 59.0611V55.2566C83.8703 55.0927 83.8579 54.9284 83.8249 54.7675C83.807 54.7043 83.7678 54.649 83.7137 54.611C83.6512 54.574 83.579 54.5561 83.5063 54.5597C83.4136 54.5639 83.3224 54.5846 83.2371 54.6208L83.1852 54.4888ZM84.5904 55.1808V56.6674C84.5817 56.8801 84.5949 57.0931 84.6299 57.3031C84.6768 57.4808 84.783 57.6377 84.9312 57.7481C85.1043 57.8795 85.3183 57.947 85.5363 57.9388C85.6736 57.9424 85.8098 57.9134 85.9335 57.8543C86.0572 57.7952 86.1649 57.7076 86.2475 57.5989C86.5062 57.2347 86.6317 56.7939 86.6031 56.3495C86.637 55.8493 86.4938 55.353 86.1981 54.946C86.1214 54.8418 86.0212 54.7568 85.9054 54.6978C85.7897 54.6388 85.6615 54.6074 85.5313 54.6062C85.386 54.6074 85.243 54.6426 85.114 54.7089C84.9179 54.841 84.7417 54.9999 84.5904 55.1808Z" fill="white"/>
<path d="M87.3564 54.0927H89.2332V54.254H89.1419C89.0362 54.2461 88.9312 54.2756 88.8455 54.3372C88.8138 54.3628 88.7884 54.3953 88.7713 54.4322C88.7541 54.4691 88.7458 54.5093 88.7467 54.5499C88.7611 54.7148 88.8108 54.8749 88.8924 55.0193L89.8803 57.0292L90.7817 54.8286C90.8303 54.7165 90.8563 54.5961 90.8582 54.4741C90.8602 54.4326 90.849 54.3915 90.8261 54.3567C90.7981 54.3215 90.7604 54.2952 90.7174 54.2809C90.6314 54.2581 90.5422 54.249 90.4532 54.254V54.0927H91.7621V54.254C91.6757 54.2587 91.5914 54.282 91.5151 54.3225C91.4382 54.3749 91.372 54.4413 91.32 54.5181C91.2645 54.627 91.215 54.7388 91.1718 54.8531L89.5148 58.8312C89.3891 59.1723 89.1744 59.4744 88.8924 59.7066C88.6854 59.8837 88.4248 59.9878 88.1516 60.0024C87.996 60.0077 87.8442 59.9544 87.7268 59.8533C87.6754 59.8122 87.6338 59.7605 87.6048 59.7018C87.5757 59.6431 87.5601 59.5788 87.5589 59.5134C87.5563 59.4587 87.5658 59.4042 87.5867 59.3535C87.6076 59.3028 87.6394 59.2573 87.6799 59.22C87.7719 59.1428 87.8903 59.1034 88.0108 59.11C88.1479 59.1188 88.2824 59.1511 88.4084 59.2053C88.4786 59.2364 88.5524 59.2586 88.6282 59.2713C88.7372 59.2612 88.8388 59.2126 88.9147 59.1344C89.0566 58.9858 89.1637 58.8079 89.2283 58.6136L89.5148 57.9217L88.0701 54.9142C88.0081 54.7973 87.9371 54.6853 87.8577 54.5792C87.8062 54.5038 87.7457 54.4348 87.6774 54.3738C87.5769 54.3148 87.4665 54.2742 87.3514 54.254L87.3564 54.0927Z" fill="white"/>
<path d="M95.8566 58.0782H94.6688C94.3041 57.5535 93.9694 57.009 93.6661 56.4473C93.6142 56.3449 93.5504 56.2489 93.476 56.1612C93.4445 56.1283 93.406 56.1029 93.3632 56.0868C93.3205 56.0707 93.2746 56.0644 93.229 56.0683H93.0611V57.1344C93.049 57.3193 93.0665 57.505 93.1129 57.6845C93.129 57.7243 93.1534 57.7604 93.1844 57.7903C93.2155 57.8202 93.2525 57.8433 93.2932 57.8581C93.4375 57.8996 93.5877 57.917 93.7377 57.9095V58.0708H91.7374V57.9095C91.9991 57.9095 92.1646 57.863 92.2313 57.7676C92.3262 57.5706 92.3638 57.3513 92.34 57.1344V55.0194C92.3545 54.8347 92.3386 54.6489 92.293 54.4692C92.2561 54.4072 92.2044 54.3552 92.1424 54.3176C92.013 54.2605 91.8711 54.237 91.73 54.2492V54.0853H93.7427V54.2492C93.5907 54.2364 93.4377 54.2547 93.2932 54.3029C93.2354 54.3376 93.183 54.3804 93.1376 54.4301C93.0677 54.6183 93.0432 54.8201 93.066 55.0194V55.8042H93.2018C93.3776 55.8031 93.5493 55.7513 93.6958 55.6551C93.8976 55.4892 94.0439 55.2667 94.1156 55.0169C94.1872 54.8003 94.2825 54.5921 94.3996 54.3959C94.4793 54.2834 94.5863 54.1926 94.7108 54.1318C94.8402 54.0643 94.9843 54.0291 95.1306 54.0291C95.2658 54.0228 95.3992 54.0625 95.5084 54.1416C95.5721 54.1894 95.6185 54.2562 95.6409 54.3322C95.6633 54.4081 95.6604 54.4892 95.6327 54.5634C95.6051 54.6376 95.5541 54.7011 95.4872 54.7444C95.4204 54.7878 95.3412 54.8087 95.2615 54.8042C95.1768 54.8008 95.0934 54.7834 95.0145 54.7528C94.9249 54.7158 94.8298 54.6935 94.733 54.6868C94.5996 54.6868 94.4885 54.8017 94.3996 55.0316C94.3386 55.2069 94.2652 55.3776 94.1798 55.5426C94.1027 55.654 94.0133 55.7566 93.9131 55.8482C94.0266 55.8908 94.1282 55.9595 94.2094 56.0487C94.4353 56.336 94.6345 56.6429 94.8046 56.9656C94.9465 57.2413 95.1215 57.4991 95.3257 57.7334C95.4642 57.8472 95.6397 57.9071 95.8196 57.9021L95.8566 58.0782Z" fill="white"/>
<path d="M100.252 57.9168V59.1833H100.089C100.094 59.0331 100.066 58.8836 100.008 58.7447C99.95 58.6057 99.8634 58.4803 99.7536 58.3765C99.5388 58.1784 99.1486 58.0782 98.583 58.0782H95.8418V57.9168C96.1011 57.9168 96.2691 57.8703 96.3357 57.775C96.4318 57.5783 96.4703 57.3589 96.4469 57.1417V55.0267C96.4613 54.8419 96.4446 54.6559 96.3975 54.4765C96.3608 54.4152 96.3101 54.3632 96.2493 54.3249C96.1199 54.2678 95.978 54.2443 95.8369 54.2565V54.0927H97.7829V54.2565C97.6484 54.2456 97.5131 54.2657 97.3878 54.3152C97.3235 54.3502 97.2691 54.4006 97.2297 54.4619C97.1744 54.6448 97.1551 54.8365 97.1729 55.0267V57.2786C97.1537 57.431 97.1768 57.5857 97.2396 57.7261C97.3755 57.7903 97.5274 57.8141 97.6767 57.7945H98.4052C98.6769 57.7945 98.8325 57.7701 98.8695 57.7212C98.9263 57.5647 98.9457 57.3973 98.9263 57.2322V55.0169C98.935 54.8382 98.9209 54.6591 98.8843 54.4839C98.8693 54.4441 98.8462 54.4077 98.8165 54.377C98.7867 54.3463 98.751 54.3219 98.7115 54.3054C98.5852 54.2594 98.4507 54.2394 98.3163 54.2467V54.0829H100.262V54.2467C100.128 54.236 99.9926 54.2561 99.8672 54.3054C99.8039 54.3417 99.7498 54.3919 99.7092 54.4521C99.6552 54.6353 99.636 54.8268 99.6524 55.0169V57.0683C99.6275 57.3037 99.6623 57.5416 99.7536 57.7603C99.8104 57.8556 99.9808 57.9046 100.252 57.9168Z" fill="white"/>
<path d="M101.724 56.8507L103.453 54.858C103.465 54.6935 103.421 54.5298 103.327 54.3934C103.272 54.3441 103.207 54.3066 103.136 54.283C103.066 54.2595 102.991 54.2504 102.917 54.2565V54.0927H104.789V54.2565C104.655 54.246 104.519 54.2661 104.394 54.3152C104.331 54.3515 104.277 54.4017 104.236 54.4619C104.182 54.6451 104.163 54.8366 104.179 55.0267V57.1417C104.165 57.3265 104.182 57.5124 104.228 57.6918C104.264 57.7566 104.316 57.8113 104.379 57.8508C104.508 57.9063 104.649 57.929 104.789 57.9168V58.0782H102.85V57.9168C103.026 57.9393 103.204 57.8918 103.344 57.7847C103.451 57.5879 103.493 57.3633 103.465 57.1417V55.2565L101.737 57.2542C101.725 57.4298 101.761 57.6053 101.84 57.7627C101.894 57.8172 101.959 57.8586 102.032 57.8837C102.104 57.9087 102.182 57.9167 102.258 57.907V58.0684H100.381V57.907C100.64 57.907 100.808 57.8605 100.875 57.7652C100.968 57.5678 101.006 57.3489 100.983 57.1319V55.0169C100.998 54.8321 100.981 54.6462 100.934 54.4668C100.897 54.4054 100.847 54.3534 100.786 54.3152C100.657 54.2581 100.515 54.2345 100.373 54.2467V54.0829H102.32V54.2467C102.185 54.236 102.05 54.2561 101.924 54.3054C101.861 54.341 101.806 54.3913 101.766 54.4521C101.711 54.635 101.692 54.8268 101.71 55.0169L101.724 56.8507Z" fill="white"/>
<path d="M106.271 56.8507L108 54.858C108.011 54.6932 107.966 54.5295 107.871 54.3934C107.816 54.3443 107.752 54.3068 107.682 54.2833C107.612 54.2598 107.537 54.2506 107.464 54.2565V54.0927H109.336V54.2565C109.201 54.2456 109.066 54.2657 108.94 54.3152C108.876 54.3502 108.822 54.4006 108.782 54.4619C108.726 54.6445 108.706 54.8364 108.723 55.0267V57.1417C108.71 57.33 108.728 57.5193 108.777 57.7016C108.814 57.7658 108.866 57.8204 108.928 57.8605C109.058 57.916 109.2 57.9387 109.341 57.9266V58.0879H107.392V57.9266C107.479 57.938 107.568 57.9322 107.652 57.9095C107.737 57.8868 107.817 57.8478 107.886 57.7945C107.993 57.598 108.037 57.3733 108.009 57.1515V55.2565L106.281 57.2542C106.27 57.43 106.306 57.6056 106.387 57.7627C106.44 57.8172 106.506 57.8586 106.578 57.8837C106.651 57.9087 106.728 57.9167 106.804 57.907V58.0684H104.945V57.907C105.206 57.907 105.372 57.8605 105.439 57.7652C105.533 57.5682 105.571 57.3489 105.547 57.1319V55.0169C105.562 54.8322 105.546 54.6464 105.5 54.4668C105.463 54.4048 105.412 54.3527 105.35 54.3152C105.22 54.2581 105.078 54.2345 104.937 54.2467V54.0829H106.883V54.2467C106.749 54.2362 106.614 54.2563 106.488 54.3054C106.425 54.3417 106.371 54.3919 106.33 54.4521C106.276 54.6353 106.257 54.8268 106.273 55.0169L106.271 56.8507ZM105.7 52.496C105.696 52.407 105.726 52.3197 105.784 52.2515C105.812 52.2217 105.845 52.198 105.883 52.182C105.92 52.166 105.961 52.158 106.002 52.1586C106.197 52.1586 106.367 52.3371 106.518 52.6965C106.565 52.8543 106.669 52.9898 106.809 53.078C106.91 53.1267 107.021 53.1526 107.133 53.1538C107.281 53.1646 107.429 53.123 107.55 53.0364C107.67 52.9181 107.76 52.7742 107.814 52.6158C107.938 52.3126 108.088 52.1635 108.266 52.1635C108.308 52.1623 108.35 52.17 108.389 52.186C108.427 52.2021 108.462 52.226 108.491 52.2564C108.521 52.2869 108.545 52.3233 108.561 52.3632C108.577 52.4032 108.584 52.4459 108.582 52.4887C108.567 52.6213 108.519 52.7479 108.441 52.8569C108.363 52.9659 108.259 53.0537 108.138 53.1122C107.844 53.3017 107.501 53.4013 107.15 53.3983C106.771 53.4249 106.393 53.3334 106.068 53.1366C105.958 53.069 105.866 52.9748 105.802 52.8629C105.737 52.751 105.703 52.6248 105.7 52.496Z" fill="white"/>
<path d="M112.798 56.8507L114.539 54.858C114.55 54.6932 114.505 54.5295 114.411 54.3934C114.356 54.3443 114.291 54.3068 114.221 54.2833C114.151 54.2598 114.077 54.2506 114.003 54.2565V54.0927H115.875V54.2565C115.74 54.2459 115.604 54.266 115.477 54.3152C115.414 54.3515 115.36 54.4017 115.319 54.4619C115.265 54.6451 115.246 54.8366 115.263 55.0267V57.1417C115.249 57.3265 115.265 57.5124 115.312 57.6918C115.348 57.7566 115.4 57.8113 115.463 57.8508C115.592 57.9062 115.734 57.9289 115.875 57.9168V58.0782H113.927V57.9168C114.014 57.9282 114.102 57.9224 114.187 57.8997C114.272 57.8771 114.351 57.838 114.42 57.7847C114.528 57.5882 114.571 57.3635 114.544 57.1417V55.2565L112.803 57.2542C112.791 57.4301 112.828 57.6058 112.909 57.7627C112.963 57.8172 113.028 57.8586 113.101 57.8837C113.173 57.9087 113.25 57.9167 113.326 57.907V58.0684H111.467V57.907C111.726 57.907 111.894 57.8605 111.961 57.7652C112.054 57.5678 112.092 57.3489 112.069 57.1319V55.0169C112.084 54.8322 112.068 54.6464 112.022 54.4668C111.985 54.4053 111.933 54.3534 111.872 54.3152C111.742 54.2581 111.601 54.2345 111.459 54.2467V54.0829H113.405V54.2467C113.271 54.236 113.136 54.2561 113.01 54.3054C112.947 54.341 112.892 54.3913 112.852 54.4521C112.798 54.6353 112.779 54.8268 112.795 55.0169L112.798 56.8507Z" fill="white"/>
<path d="M116.186 55.3421V54.0927H116.371C116.418 54.1375 116.481 54.1621 116.547 54.1611C116.657 54.1497 116.765 54.1268 116.87 54.0927C117.091 54.0239 117.32 53.9845 117.552 53.9753C117.895 53.9628 118.234 54.055 118.522 54.2394C118.643 54.3144 118.742 54.4188 118.81 54.5425C118.877 54.6662 118.912 54.8052 118.91 54.946C118.91 55.3934 118.567 55.7211 117.878 55.924C118.68 56.087 119.081 56.4595 119.083 57.0414C119.081 57.196 119.045 57.3483 118.978 57.4879C118.911 57.6276 118.815 57.7513 118.695 57.8507C118.378 58.1038 117.976 58.2287 117.569 58.2004C117.277 58.2056 116.987 58.1472 116.72 58.0292C116.425 57.8776 116.156 57.6813 115.922 57.4473L116.036 57.3348C116.417 57.6639 116.898 57.8582 117.404 57.8874C117.516 57.8914 117.628 57.8717 117.733 57.8296C117.837 57.7874 117.931 57.7238 118.009 57.6429C118.091 57.5575 118.155 57.4566 118.198 57.3461C118.24 57.2357 118.26 57.1179 118.256 56.9999C118.256 56.4228 117.879 56.1164 117.125 56.0805V55.836C117.266 55.8493 117.409 55.8309 117.542 55.7823C117.676 55.7336 117.796 55.6559 117.895 55.5548C118.05 55.3914 118.138 55.1771 118.142 54.9533C118.142 54.7704 118.069 54.5948 117.94 54.4643C117.869 54.393 117.784 54.3373 117.691 54.3006C117.597 54.2639 117.497 54.2473 117.396 54.2516C116.874 54.2516 116.529 54.6216 116.359 55.3617L116.186 55.3421Z" fill="white"/>
<path d="M124.773 56.5647C124.698 57.0257 124.475 57.4504 124.136 57.775C123.854 58.0448 123.478 58.1971 123.086 58.2005C122.856 58.1988 122.63 58.1468 122.423 58.0483C122.216 57.9498 122.033 57.8072 121.888 57.6307C121.532 57.1976 121.35 56.6485 121.38 56.0903C121.368 55.8113 121.411 55.5326 121.508 55.2703C121.605 55.008 121.754 54.7674 121.945 54.5622C122.116 54.3749 122.326 54.2258 122.56 54.1247C122.793 54.0235 123.046 53.9726 123.301 53.9753C123.657 53.9577 124.008 54.068 124.289 54.2859C124.398 54.3581 124.488 54.4536 124.555 54.5654C124.621 54.6771 124.661 54.8022 124.672 54.9314C124.673 54.9812 124.665 55.0309 124.646 55.0772C124.627 55.1235 124.599 55.1654 124.563 55.2003C124.48 55.2727 124.372 55.3096 124.262 55.303C124.188 55.308 124.114 55.2956 124.046 55.2667C123.978 55.2377 123.918 55.1932 123.871 55.1368C123.807 55.032 123.773 54.912 123.773 54.7895C123.766 54.6407 123.702 54.5 123.595 54.3959C123.473 54.3036 123.321 54.2577 123.168 54.2663C123.032 54.2621 122.898 54.2891 122.775 54.3451C122.652 54.4011 122.544 54.4846 122.459 54.589C122.209 54.9111 122.083 55.3106 122.103 55.7162C122.095 56.1614 122.219 56.5992 122.459 56.9755C122.554 57.1429 122.693 57.2818 122.861 57.3778C123.029 57.4737 123.221 57.5231 123.415 57.5207C123.7 57.5207 123.975 57.4172 124.188 57.2297C124.397 57.0228 124.557 56.7722 124.657 56.4962L124.773 56.5647Z" fill="white"/>
<path d="M125.017 54.0927H128.5L128.675 55.1709H128.477C128.456 54.9921 128.395 54.8201 128.299 54.6672C128.236 54.5577 128.138 54.4718 128.02 54.4227C127.844 54.375 127.662 54.3552 127.48 54.3641H127.126V57.1319C127.114 57.322 127.133 57.5128 127.183 57.6967C127.199 57.7345 127.223 57.7684 127.254 57.7958C127.285 57.8233 127.321 57.8437 127.361 57.8556C127.546 57.8922 127.733 57.9094 127.922 57.907V58.0684H125.734V57.907C125.925 57.9271 126.118 57.8795 126.277 57.7725C126.384 57.5769 126.427 57.3527 126.398 57.1319V54.3738H126.037C125.865 54.3662 125.692 54.3818 125.524 54.4203C125.416 54.4646 125.325 54.5406 125.262 54.6379C125.158 54.8011 125.085 54.9817 125.047 55.1709H124.849L125.017 54.0927Z" fill="white"/>
<path d="M129.418 55.594C129.386 56.0952 129.542 56.5906 129.855 56.9852C129.978 57.1412 130.134 57.2677 130.313 57.3553C130.492 57.443 130.688 57.4895 130.888 57.4914C131.134 57.496 131.375 57.4204 131.574 57.2762C131.804 57.0819 131.975 56.8279 132.068 56.5427L132.204 56.6307C132.138 57.0371 131.951 57.4148 131.668 57.7163C131.53 57.8734 131.359 57.9987 131.167 58.0832C130.975 58.1677 130.767 58.2094 130.557 58.2053C130.322 58.2061 130.09 58.1563 129.877 58.0597C129.664 57.963 129.475 57.8217 129.322 57.6454C128.961 57.2287 128.776 56.69 128.806 56.1417C128.77 55.563 128.959 54.9925 129.334 54.5475C129.501 54.3626 129.706 54.2157 129.935 54.117C130.164 54.0182 130.413 53.9699 130.663 53.9753C130.869 53.9681 131.075 54.0038 131.267 54.08C131.459 54.1562 131.632 54.2713 131.777 54.4179C131.925 54.5761 132.04 54.7621 132.114 54.9649C132.189 55.1677 132.222 55.3833 132.211 55.5989L129.418 55.594ZM129.418 55.3495H131.283C131.282 55.1657 131.251 54.9832 131.191 54.8091C131.123 54.6517 131.008 54.5181 130.863 54.4252C130.729 54.3356 130.571 54.2871 130.409 54.2859C130.286 54.2868 130.166 54.3122 130.053 54.3605C129.941 54.4088 129.84 54.4791 129.757 54.567C129.554 54.7774 129.434 55.0522 129.418 55.3421V55.3495Z" fill="white"/>
<path d="M136.506 58.0782H135.32C134.955 57.554 134.62 57.0095 134.318 56.4473C134.265 56.3448 134.201 56.2488 134.125 56.1612C134.095 56.1298 134.059 56.1053 134.018 56.0892C133.978 56.0732 133.934 56.066 133.891 56.0683H133.725V57.1344C133.713 57.3192 133.729 57.5048 133.775 57.6845C133.791 57.7244 133.816 57.7605 133.847 57.7904C133.879 57.8203 133.916 57.8433 133.957 57.8581C134.101 57.9 134.252 57.9173 134.402 57.9095V58.0708H132.389V57.9095C132.636 57.9095 132.816 57.863 132.883 57.7676C132.979 57.571 133.018 57.3516 132.994 57.1344V55.0194C133.009 54.8345 132.992 54.6486 132.945 54.4692C132.908 54.4078 132.857 54.3559 132.797 54.3176C132.667 54.2605 132.525 54.237 132.384 54.2492V54.0853H134.397V54.2492C134.244 54.2363 134.09 54.2546 133.945 54.3029C133.887 54.3376 133.835 54.3804 133.789 54.4301C133.721 54.6186 133.697 54.8203 133.72 55.0194V55.8042H133.856C134.032 55.8024 134.203 55.7507 134.35 55.6551C134.552 55.4896 134.697 55.2669 134.767 55.0169C134.84 54.8007 134.935 54.5926 135.051 54.3959C135.133 54.2839 135.24 54.1933 135.365 54.1318C135.494 54.0641 135.638 54.0288 135.785 54.0291C135.92 54.0228 136.053 54.0625 136.163 54.1416C136.203 54.1747 136.236 54.2156 136.261 54.2619C136.285 54.3082 136.299 54.3588 136.303 54.4107C136.306 54.4626 136.299 54.5147 136.282 54.5639C136.265 54.613 136.238 54.6582 136.202 54.6966C136.165 54.733 136.121 54.7613 136.073 54.7799C136.024 54.7984 135.972 54.8067 135.921 54.8042C135.836 54.8012 135.752 54.7838 135.674 54.7528C135.584 54.7163 135.489 54.694 135.392 54.6868C135.255 54.6868 135.144 54.8017 135.059 55.0316C134.997 55.2064 134.923 55.3771 134.839 55.5426C134.762 55.6546 134.671 55.7571 134.57 55.8482C134.684 55.89 134.785 55.9589 134.866 56.0487C135.094 56.3347 135.293 56.6418 135.461 56.9656C135.603 57.2413 135.778 57.4991 135.982 57.7334C136.121 57.8472 136.296 57.9071 136.476 57.9021L136.506 58.0782Z" fill="white"/>
<path d="M136.985 54.0927H140.583V54.2565C140.448 54.2454 140.312 54.2655 140.186 54.3152C140.122 54.3509 140.069 54.4012 140.03 54.4619C139.975 54.6448 139.955 54.8365 139.973 55.0267V57.1417C139.959 57.3264 139.975 57.5121 140.02 57.6918C140.057 57.7566 140.11 57.8113 140.173 57.8508C140.302 57.9063 140.443 57.929 140.583 57.9168V58.0781H138.499V57.9168C138.656 57.9223 138.813 57.9108 138.968 57.8825C139.012 57.8702 139.053 57.8488 139.089 57.8197C139.124 57.7906 139.153 57.7546 139.173 57.7138C139.237 57.5302 139.263 57.3354 139.247 57.1417V54.3738H137.918V56.0536C137.932 56.5019 137.904 56.9504 137.834 57.3935C137.795 57.6177 137.675 57.8202 137.496 57.9632C137.328 58.0849 137.124 58.1493 136.916 58.1466C136.543 58.1466 136.355 57.995 136.355 57.6869C136.351 57.5933 136.383 57.5016 136.444 57.4302C136.473 57.3975 136.51 57.3715 136.55 57.3542C136.591 57.3369 136.635 57.3286 136.679 57.33C136.787 57.3324 136.89 57.3772 136.965 57.4546C137.079 57.5671 137.165 57.6209 137.212 57.6209C137.343 57.6209 137.439 57.5109 137.501 57.2933C137.575 56.914 137.604 56.5276 137.59 56.1416V55.2565C137.617 54.9764 137.583 54.6939 137.491 54.4276C137.425 54.3298 137.257 54.2711 136.997 54.2491L136.985 54.0927Z" fill="white"/>
<path d="M143.072 57.5036C142.827 57.7047 142.567 57.8877 142.295 58.0512C142.14 58.1231 141.971 58.1606 141.801 58.1613C141.672 58.165 141.544 58.1416 141.425 58.0927C141.307 58.0438 141.2 57.9705 141.112 57.8776C140.929 57.6773 140.832 57.4141 140.842 57.1441C140.837 56.9665 140.882 56.791 140.973 56.638C141.134 56.4053 141.349 56.2148 141.601 56.083C142.075 55.8296 142.571 55.6169 143.082 55.4472V55.2908C143.111 55.0045 143.045 54.7167 142.892 54.4716C142.822 54.3959 142.736 54.3367 142.64 54.2982C142.544 54.2597 142.44 54.2429 142.337 54.2491C142.176 54.2403 142.018 54.2938 141.897 54.3983C141.845 54.4391 141.803 54.4908 141.774 54.5496C141.745 54.6083 141.73 54.6727 141.729 54.7382V54.9827C141.736 55.0948 141.699 55.2054 141.625 55.2908C141.591 55.3272 141.548 55.3558 141.501 55.3748C141.455 55.3938 141.404 55.4026 141.354 55.4008C141.304 55.4018 141.254 55.392 141.209 55.3722C141.163 55.3523 141.122 55.3229 141.089 55.2859C141.016 55.2001 140.979 55.0898 140.986 54.9778C140.991 54.8391 141.029 54.7035 141.097 54.5821C141.164 54.4606 141.26 54.3566 141.376 54.2785C141.689 54.0515 142.073 53.9407 142.46 53.9655C142.763 53.9533 143.065 54.0146 143.339 54.144C143.514 54.2342 143.649 54.3834 143.722 54.5646C143.79 54.8146 143.816 55.0739 143.801 55.3323V56.6844C143.795 56.9178 143.802 57.1513 143.823 57.3837C143.828 57.4468 143.854 57.5066 143.895 57.5549C143.927 57.5831 143.968 57.5988 144.011 57.5989C144.054 57.6003 144.097 57.5893 144.134 57.5671C144.263 57.4727 144.382 57.3663 144.49 57.2493V57.4938C144.161 57.929 143.847 58.1466 143.549 58.1466C143.485 58.1494 143.42 58.1374 143.361 58.1115C143.302 58.0856 143.25 58.0466 143.208 57.9975C143.108 57.8526 143.061 57.6786 143.072 57.5036ZM143.072 57.2199V55.7015C142.78 55.8092 142.494 55.9333 142.216 56.0732C142.023 56.1683 141.854 56.3044 141.722 56.4717C141.625 56.605 141.573 56.7649 141.573 56.929C141.567 57.1199 141.634 57.3063 141.761 57.4498C141.814 57.5131 141.881 57.5642 141.956 57.5996C142.031 57.6351 142.113 57.654 142.196 57.6551C142.416 57.6551 142.709 57.5109 143.072 57.2126V57.2199Z" fill="white"/>
<path d="M42.7434 23.3848H32.3613V20.6072H50.2361L29.4225 0L0 29.1308L29.4225 58.2591L42.7434 45.0703V23.3848Z" fill="#FF6D4C"/>
<path d="M45.8971 41.9479L58.8426 29.1308L53.0391 23.3848H45.8971V41.9479Z" fill="#FF6D4C"/>
</g>
<defs>
<clipPath id="clip0_128_377">
<rect width="152" height="60" fill="white"/>
</clipPath>
</defs>
</svg>
