<svg display=" none " xmlns=" http://www.w3.org/2000/svg">
    <symbol id="diamond" viewBox="0 0 77 79" fill="none" xmlns="http://www.w3.org/2000/svg">
        <g filter="url(#filter0_d_4_23)">
            <path d="M18.8301 4.68752C18.7329 4.68663 18.637 4.70993 18.551 4.75534C18.4651 4.80074 18.3918 4.86682 18.3377 4.94761C18.2836 5.0284 18.2505 5.12138 18.2414 5.21815C18.2322 5.31493 18.2472 5.41247 18.2852 5.50198L18.6221 6.29739L24.584 20.1988C24.6245 20.2933 24.6892 20.3755 24.7716 20.4371C24.8539 20.4988 24.9511 20.5376 25.0532 20.5498C25.1554 20.562 25.2589 20.547 25.3534 20.5065C25.448 20.466 25.5302 20.4013 25.5918 20.3189L36.5957 5.62503C36.661 5.53797 36.7008 5.43446 36.7105 5.32608C36.7203 5.21771 36.6997 5.10875 36.651 5.01142C36.6024 4.9141 36.5276 4.83224 36.435 4.77503C36.3424 4.71783 36.2358 4.68752 36.127 4.68752H18.8301Z"
                  fill="#FC734E"/>
            <path d="M62.5132 8.5049L56.4663 22.6216C56.4283 22.7107 56.4129 22.8079 56.4217 22.9044C56.4304 23.0009 56.4629 23.0937 56.5164 23.1746C56.5698 23.2554 56.6424 23.3218 56.7277 23.3676C56.8131 23.4135 56.9085 23.4375 57.0054 23.4375H71.8003C71.9048 23.4376 72.0073 23.4097 72.0974 23.3567C72.1875 23.3038 72.2618 23.2278 72.3126 23.1365C72.3634 23.0452 72.3888 22.942 72.3863 22.8376C72.3838 22.7331 72.3534 22.6312 72.2983 22.5425L63.5488 8.42726C63.4923 8.33639 63.412 8.26273 63.3165 8.21428C63.2211 8.16584 63.1142 8.14446 63.0075 8.15246C62.9008 8.16046 62.7983 8.19754 62.7111 8.25967C62.624 8.3218 62.5555 8.40661 62.5132 8.5049Z"
                  fill="#FC734E"/>
            <path d="M13.4512 8.43312L4.70459 22.5425C4.64948 22.6312 4.61911 22.7331 4.61661 22.8376C4.61411 22.942 4.63957 23.0452 4.69037 23.1365C4.74117 23.2278 4.81545 23.3038 4.90552 23.3568C4.99559 23.4097 5.09817 23.4376 5.20264 23.4375H19.9976C20.0945 23.4374 20.1899 23.4132 20.2753 23.3672C20.3606 23.3211 20.4331 23.2546 20.4864 23.1736C20.5397 23.0925 20.572 22.9996 20.5805 22.903C20.589 22.8064 20.5735 22.7092 20.5352 22.6201L14.4766 8.51076C14.4332 8.41492 14.3649 8.3325 14.2787 8.27217C14.1926 8.21184 14.0918 8.17581 13.9869 8.16787C13.882 8.15993 13.7769 8.18037 13.6827 8.22704C13.5884 8.27371 13.5084 8.3449 13.4512 8.43312Z"
                  fill="#FC734E"/>
            <path d="M58.6079 4.68751H40.2315C40.1784 4.68716 40.1264 4.70166 40.0811 4.72936C40.0359 4.75707 39.9994 4.79687 39.9756 4.84426C39.9518 4.89166 39.9418 4.94477 39.9466 4.99757C39.9514 5.05038 39.971 5.10078 40.0029 5.14307L51.71 20.7378C51.7398 20.7779 51.7798 20.8093 51.8257 20.829C51.8716 20.8487 51.9219 20.856 51.9715 20.8501C52.0212 20.8441 52.0683 20.8252 52.1083 20.7952C52.1483 20.7652 52.1796 20.7252 52.1992 20.6792L58.3633 6.29883L58.8613 5.07715C58.8789 5.03522 58.886 4.98966 58.8821 4.94437C58.8782 4.89908 58.8634 4.85541 58.8389 4.81711C58.8144 4.7788 58.781 4.747 58.7415 4.72443C58.7021 4.70186 58.6577 4.68919 58.6123 4.68751H58.6079Z"
                  fill="#FC734E"/>
            <path d="M36.0098 65.625L22.9097 28.4927C22.8712 28.3848 22.8003 28.2916 22.7066 28.2258C22.613 28.1599 22.5012 28.1247 22.3867 28.125H4.76465C4.66257 28.1247 4.56246 28.1531 4.47572 28.2069C4.38899 28.2608 4.31912 28.3379 4.27408 28.4295C4.22904 28.5211 4.21064 28.6235 4.22097 28.7251C4.2313 28.8266 4.26995 28.9232 4.33252 29.0039L35.9731 69.9917C36.0803 70.1304 36.2331 70.2267 36.4044 70.2634C36.5758 70.3002 36.7546 70.275 36.9092 70.1924C37.0646 70.1106 37.1855 69.9756 37.2498 69.8122C37.3141 69.6487 37.3174 69.4675 37.2593 69.3018L36.0098 65.625Z"
                  fill="#FC734E"/>
            <path d="M72.2353 28.125H54.6133C54.4994 28.125 54.3883 28.1603 54.2954 28.2262C54.2025 28.2921 54.1324 28.3852 54.0947 28.4927L39.71 69.2388C39.6496 69.4098 39.652 69.5968 39.717 69.7662C39.782 69.9356 39.9052 70.0763 40.0645 70.1631C40.2238 70.2494 40.4086 70.2763 40.586 70.239C40.7633 70.2017 40.9216 70.1026 41.0327 69.9595L72.6675 29.0039C72.73 28.9232 72.7687 28.8266 72.779 28.7251C72.7894 28.6235 72.771 28.5211 72.7259 28.4295C72.6809 28.3379 72.611 28.2608 72.5243 28.2069C72.4375 28.1531 72.3374 28.1247 72.2353 28.125Z"
                  fill="#FC734E"/>
            <path d="M38.9687 11.562L47.1719 22.5C47.2372 22.5871 47.2769 22.6906 47.2867 22.7989C47.2965 22.9073 47.2759 23.0163 47.2272 23.1136C47.1785 23.2109 47.1037 23.2928 47.0112 23.35C46.9186 23.4072 46.8119 23.4375 46.7031 23.4375H30.2969C30.1881 23.4375 30.0814 23.4072 29.9888 23.35C29.8963 23.2928 29.8215 23.2109 29.7728 23.1136C29.7241 23.0163 29.7035 22.9073 29.7133 22.7989C29.7231 22.6906 29.7628 22.5871 29.8281 22.5L38.0312 11.562C38.0858 11.4892 38.1566 11.4302 38.238 11.3895C38.3193 11.3488 38.409 11.3276 38.5 11.3276C38.591 11.3276 38.6807 11.3488 38.762 11.3895C38.8434 11.4302 38.9142 11.4892 38.9687 11.562ZM37.9434 57.0176L28.0264 28.9058C27.9952 28.8174 27.9857 28.7229 27.9986 28.6301C28.0115 28.5374 28.0465 28.449 28.1006 28.3726C28.1547 28.2961 28.2263 28.2337 28.3095 28.1906C28.3927 28.1476 28.4849 28.1251 28.5786 28.125H48.4214C48.5151 28.1251 48.6073 28.1476 48.6905 28.1906C48.7737 28.2337 48.8453 28.2961 48.8994 28.3726C48.9535 28.449 48.9885 28.5374 49.0014 28.6301C49.0143 28.7229 49.0048 28.8174 48.9736 28.9058L39.0522 57.0176C39.0118 57.1317 38.937 57.2305 38.8381 57.3003C38.7392 57.3702 38.6211 57.4077 38.5 57.4077C38.3789 57.4077 38.2608 57.3702 38.1619 57.3003C38.063 57.2305 37.9882 57.1317 37.9478 57.0176H37.9434Z"
                  fill="#FC734E"/>
        </g>
        <defs>
            <filter id="filter0_d_4_23" x="-3" y="0" width="83" height="83" filterUnits="userSpaceOnUse"
                    color-interpolation-filters="sRGB">
                <feFlood flood-opacity="0" result="BackgroundImageFix"/>
                <feColorMatrix in="SourceAlpha" type="matrix" values="0 0 0 0 0 0 0 0 0 0 0 0 0 0 0 0 0 0 127 0"
                               result="hardAlpha"/>
                <feOffset dy="4"/>
                <feGaussianBlur stdDeviation="2"/>
                <feComposite in2="hardAlpha" operator="out"/>
                <feColorMatrix type="matrix" values="0 0 0 0 0 0 0 0 0 0 0 0 0 0 0 0 0 0 0.25 0"/>
                <feBlend mode="normal" in2="BackgroundImageFix" result="effect1_dropShadow_4_23"/>
                <feBlend mode="normal" in="SourceGraphic" in2="effect1_dropShadow_4_23" result="shape"/>
            </filter>
        </defs>
    </symbol>

    <symbol id="handlers" viewBox="0 0 109 83" fill="none" xmlns="http://www.w3.org/2000/svg">
        <g clip-path="url(#clip0_4_31)" filter="url(#filter0_d_4_31)">
            <path d="M52.488 -0.234486C52.6063 -0.219435 52.7256 -0.212221 52.8449 -0.212893H65.2633C65.3591 -0.213241 65.4548 -0.218647 65.55 -0.229088C67.0894 -0.395806 68.6429 -0.384938 70.1799 -0.196698C72.2394 -0.0980085 74.2489 0.470803 76.0537 1.466C79.4612 3.00992 82.4306 5.49857 84.5562 8.75377C88.5695 14.9079 88.8075 22.6869 85.3459 29.0192L67.9569 11.4421C67.7049 11.1884 67.4049 10.9871 67.0744 10.85C66.7438 10.7128 66.3893 10.6426 66.0314 10.6432H58.8324C58.2429 10.6424 57.6693 10.8339 57.1989 11.1884L45.581 19.9715C44.8707 20.507 44.0505 20.879 43.1791 21.061C42.3078 21.2429 41.407 21.2302 40.5411 21.0238C39.6753 20.8175 38.8659 20.4225 38.171 19.8673C37.476 19.312 36.9127 18.6103 36.5214 17.8122C35.3099 15.3182 35.9806 12.2465 38.2847 10.5082L52.488 -0.234486Z"
                  fill="#FC734E"/>
            <path d="M30.8747 47.5679L30.799 47.6381L26.6722 51.7408L26.5965 51.8056C25.9813 52.376 25.1691 52.6871 24.3296 52.674C23.4901 52.661 22.688 52.3247 22.091 51.7354C21.7906 51.4383 21.5521 51.0847 21.3894 50.6951C21.2267 50.3055 21.1429 49.8876 21.1429 49.4654C21.1429 49.0433 21.2267 48.6254 21.3894 48.2358C21.5521 47.8461 21.7906 47.4926 22.091 47.1954L26.2233 43.0981C26.5237 42.7973 26.8807 42.5586 27.2738 42.3957C27.6669 42.2329 28.0883 42.149 28.5138 42.149C28.9394 42.149 29.3608 42.2329 29.7539 42.3957C30.147 42.5586 30.504 42.7973 30.8044 43.0981C32.0484 44.3289 32.0701 46.3101 30.8747 47.5679Z"
                  fill="#FC734E"/>
            <path d="M30.4312 55.6115C29.2413 56.8693 29.2683 58.8505 30.5069 60.0813C31.1159 60.6849 31.9393 61.0237 32.7975 61.0237C33.6558 61.0237 34.4792 60.6849 35.0881 60.0813L39.215 55.984C39.5543 55.6488 39.8142 55.2423 39.9757 54.794C40.1373 54.3457 40.1964 53.867 40.1487 53.393C40.101 52.9189 39.9477 52.4616 39.7001 52.0543C39.4524 51.647 39.1167 51.3001 38.7174 51.0391C38.1088 50.6402 37.3838 50.4564 36.6583 50.5171C35.9328 50.5778 35.2485 50.8794 34.7149 51.3738L34.6392 51.4439L30.5069 55.5413L30.4366 55.6115H30.4312Z"
                  fill="#FC734E"/>
            <path d="M20.6901 36.4365C20.9906 36.7336 21.229 37.0872 21.3917 37.4768C21.5545 37.8665 21.6383 38.2844 21.6383 38.7065C21.6383 39.1286 21.5545 39.5466 21.3917 39.9362C21.229 40.3258 20.9906 40.6794 20.6901 40.9765L16.5579 45.0739C15.9489 45.6775 15.1255 46.0162 14.2673 46.0162C13.4091 46.0162 12.5857 45.6775 11.9767 45.0739C11.6763 44.7767 11.4378 44.4232 11.2751 44.0335C11.1124 43.6439 11.0286 43.226 11.0286 42.8039C11.0286 42.3818 11.1124 41.9638 11.2751 41.5742C11.4378 41.1846 11.6763 40.831 11.9767 40.5339L16.109 36.4311C16.7179 35.8275 17.5413 35.4888 18.3996 35.4888C19.2578 35.4888 20.0812 35.8275 20.6901 36.4311V36.4365Z"
                  fill="#FC734E"/>
            <path d="M47.631 59.7952C47.9305 60.0922 48.1683 60.4454 48.3306 60.8346C48.4928 61.2237 48.5763 61.641 48.5763 62.0625C48.5763 62.4839 48.4928 62.9013 48.3306 63.2904C48.1683 63.6795 47.9305 64.0327 47.631 64.3298L43.5041 68.4325C42.8945 69.0348 42.0713 69.3727 41.2135 69.3727C40.3557 69.3727 39.5326 69.0348 38.9229 68.4325C38.4084 67.924 38.0817 67.2564 37.9962 66.5387C37.9108 65.8211 38.0716 65.0957 38.4524 64.4809L38.4632 64.4593C38.594 64.2517 38.7483 64.0597 38.9229 63.8871L43.0552 59.7898C43.6641 59.1862 44.4875 58.8474 45.3458 58.8474C46.204 58.8474 47.0274 59.1862 47.6364 59.7898L47.631 59.7952Z"
                  fill="#FC734E"/>
            <path d="M19.5164 7.26925C22.5244 4.29065 26.2221 2.09871 30.2818 0.887732C34.3416 -0.323246 38.638 -0.515857 42.7901 0.326971L35.0178 6.20578C33.8265 7.10673 32.8253 8.23383 32.0718 9.52228C31.3184 10.8107 30.8275 12.2351 30.6275 13.7135C30.4274 15.192 30.5221 16.6953 30.9061 18.1371C31.2902 19.5788 31.9559 20.9306 32.8651 22.1147C34.7043 24.509 37.4177 26.0799 40.4132 26.4844C43.4086 26.889 46.4428 26.0944 48.8533 24.2741L59.7464 16.0416H64.663L75.1396 26.4334L75.1667 26.4064L83.8639 35.2003C83.9056 35.2433 83.9489 35.2847 83.9937 35.3245L88.6722 39.9941C89.6635 40.9951 90.2331 42.337 90.264 43.7442C90.2949 45.1513 89.7848 46.5168 88.8383 47.5602C87.8919 48.6037 86.5811 49.2457 85.1751 49.3546C83.7692 49.4635 82.3748 49.0308 81.2785 48.1456L80.8837 47.7569C80.7925 47.6655 80.6949 47.5807 80.5916 47.5032L75.9942 42.9146C75.4871 42.4077 74.7991 42.1227 74.0814 42.1222C73.3638 42.1217 72.6754 42.4057 72.1675 42.9119C71.6597 43.418 71.3742 44.1047 71.3737 44.821C71.3732 45.5372 71.6577 46.2244 72.1648 46.7312L77.0435 51.6005C77.2274 51.7841 77.4221 51.9568 77.6114 52.1241L77.7737 52.2861C78.4751 52.9855 78.8695 53.9344 78.87 54.924C78.8705 55.9136 78.4771 56.8629 77.7764 57.563C77.0756 58.2631 76.1249 58.6567 75.1334 58.6572C74.1419 58.6577 73.1908 58.2651 72.4894 57.5657L71.77 56.8531C71.3895 56.4745 70.9047 56.2176 70.3773 56.1151C69.85 56.0126 69.304 56.0692 68.809 56.2777C68.314 56.4862 67.8925 56.8372 67.5981 57.2858C67.3038 57.7344 67.15 58.2603 67.1564 58.7965C67.1489 59.1594 67.2151 59.52 67.3508 59.8568C67.4865 60.1935 67.6889 60.4994 67.946 60.7561L68.8926 61.7008C69.2097 62.0174 69.4613 62.3931 69.6329 62.8067C69.8046 63.2203 69.8929 63.6635 69.8929 64.1112C69.8929 64.5588 69.8046 65.0021 69.6329 65.4157C69.4613 65.8292 69.2097 66.205 68.8926 66.5216C68.5754 66.8381 68.1989 67.0892 67.7846 67.2605C67.3702 67.4318 66.9261 67.52 66.4776 67.52C66.0291 67.52 65.585 67.4318 65.1706 67.2605C64.7562 67.0892 64.3797 66.8381 64.0626 66.5216L63.5812 66.0357C63.4179 65.8432 63.2464 65.6577 63.0674 65.4797L62.1858 64.5997C61.6757 64.1081 60.9926 63.836 60.2835 63.8421C59.5744 63.8483 58.8962 64.1322 58.3948 64.6326C57.8933 65.1331 57.6089 65.8101 57.6028 66.5178C57.5966 67.2255 57.8692 67.9073 58.3618 68.4164L59.0217 69.075C59.1028 69.1829 59.1947 69.2909 59.2921 69.3935L59.5571 69.6526C60.0966 70.3512 60.3517 71.2273 60.2715 72.1057C60.1912 72.984 59.7815 73.7997 59.1244 74.3894C58.4672 74.9791 57.6112 75.2992 56.7276 75.2858C55.844 75.2723 54.9982 74.9262 54.3594 74.3168L49.6808 69.9171L51.4765 68.1357C52.2801 67.3407 52.918 66.3947 53.3533 65.3523C53.7886 64.3099 54.0127 63.1918 54.0127 62.0625C54.0127 60.9332 53.7886 59.8151 53.3533 58.7727C52.918 57.7304 52.2801 56.7844 51.4765 55.9894C49.9086 54.4318 47.8032 53.5318 45.5918 53.4737C45.5314 51.2776 44.6247 49.1893 43.0606 47.6435C41.4943 46.0868 39.3909 45.1868 37.1813 45.1279C37.1194 42.931 36.2107 40.8426 34.6446 39.2977C33.6417 38.3022 32.4106 37.566 31.058 37.153C29.7055 36.74 28.2724 36.6627 26.8831 36.9278C26.5362 35.2968 25.7183 33.8029 24.5303 32.6307C23.0064 31.1248 20.9793 30.2332 18.8374 30.1266C16.6956 30.02 14.5897 30.706 12.9232 32.0531C11.7155 27.7104 11.6903 23.1248 12.8502 18.7692C14.0101 14.4136 16.3132 10.4457 19.5219 7.27465L19.5164 7.26925Z"
                  fill="#FC734E"/>
        </g>
        <defs>
            <filter id="filter0_d_4_31" x="-4" y="0" width="117" height="83" filterUnits="userSpaceOnUse"
                    color-interpolation-filters="sRGB">
                <feFlood flood-opacity="0" result="BackgroundImageFix"/>
                <feColorMatrix in="SourceAlpha" type="matrix" values="0 0 0 0 0 0 0 0 0 0 0 0 0 0 0 0 0 0 127 0"
                               result="hardAlpha"/>
                <feOffset dy="4"/>
                <feGaussianBlur stdDeviation="2"/>
                <feComposite in2="hardAlpha" operator="out"/>
                <feColorMatrix type="matrix" values="0 0 0 0 0 0 0 0 0 0 0 0 0 0 0 0 0 0 0.25 0"/>
                <feBlend mode="normal" in2="BackgroundImageFix" result="effect1_dropShadow_4_31"/>
                <feBlend mode="normal" in="SourceGraphic" in2="effect1_dropShadow_4_31" result="shape"/>
            </filter>
            <clipPath id="clip0_4_31">
                <rect width="109" height="75" fill="white"/>
            </clipPath>
        </defs>
    </symbol>

    <symbol id="delivery" viewBox="0 0 114 83" fill="none" xmlns="http://www.w3.org/2000/svg">
        <g clip-path="url(#clip0_4_39)" filter="url(#filter0_d_4_39)">
            <path d="M14.25 -0.43103C11.7304 -0.43103 9.31408 0.568043 7.53249 2.3464C5.75089 4.12477 4.75 6.53674 4.75 9.05173V61.2069H14.25C14.25 64.9794 15.7513 68.5973 18.4237 71.2649C21.0961 73.9324 24.7207 75.431 28.5 75.431C32.2793 75.431 35.9039 73.9324 38.5763 71.2649C41.2487 68.5973 42.75 64.9794 42.75 61.2069H71.25C71.25 64.9794 72.7513 68.5973 75.4237 71.2649C78.0961 73.9324 81.7207 75.431 85.5 75.431C89.2793 75.431 92.9039 73.9324 95.5763 71.2649C98.2487 68.5973 99.75 64.9794 99.75 61.2069H109.25V37.5L95 18.5345H80.75V-0.43103H14.25ZM47.5 9.05173L66.5 28.0172L47.5 46.9828V32.7586H19V23.2759H47.5V9.05173ZM80.75 25.6466H92.625L101.982 37.5H80.75V25.6466ZM28.5 54.0948C30.3897 54.0948 32.2019 54.8441 33.5381 56.1779C34.8743 57.5117 35.625 59.3207 35.625 61.2069C35.625 63.0931 34.8743 64.9021 33.5381 66.2359C32.2019 67.5696 30.3897 68.319 28.5 68.319C26.6103 68.319 24.7981 67.5696 23.4619 66.2359C22.1257 64.9021 21.375 63.0931 21.375 61.2069C21.375 59.3207 22.1257 57.5117 23.4619 56.1779C24.7981 54.8441 26.6103 54.0948 28.5 54.0948V54.0948ZM85.5 54.0948C87.3897 54.0948 89.2019 54.8441 90.5381 56.1779C91.8743 57.5117 92.625 59.3207 92.625 61.2069C92.625 63.0931 91.8743 64.9021 90.5381 66.2359C89.2019 67.5696 87.3897 68.319 85.5 68.319C83.6103 68.319 81.7981 67.5696 80.4619 66.2359C79.1257 64.9021 78.375 63.0931 78.375 61.2069C78.375 59.3207 79.1257 57.5117 80.4619 56.1779C81.7981 54.8441 83.6103 54.0948 85.5 54.0948Z"
                  fill="#FC734E"/>
        </g>
        <defs>
            <filter id="filter0_d_4_39" x="-4" y="0" width="122" height="83" filterUnits="userSpaceOnUse"
                    color-interpolation-filters="sRGB">
                <feFlood flood-opacity="0" result="BackgroundImageFix"/>
                <feColorMatrix in="SourceAlpha" type="matrix" values="0 0 0 0 0 0 0 0 0 0 0 0 0 0 0 0 0 0 127 0"
                               result="hardAlpha"/>
                <feOffset dy="4"/>
                <feGaussianBlur stdDeviation="2"/>
                <feComposite in2="hardAlpha" operator="out"/>
                <feColorMatrix type="matrix" values="0 0 0 0 0 0 0 0 0 0 0 0 0 0 0 0 0 0 0.25 0"/>
                <feBlend mode="normal" in2="BackgroundImageFix" result="effect1_dropShadow_4_39"/>
                <feBlend mode="normal" in="SourceGraphic" in2="effect1_dropShadow_4_39" result="shape"/>
            </filter>
            <clipPath id="clip0_4_39">
                <rect width="114" height="75" fill="white"/>
            </clipPath>
        </defs>
    </symbol>

    <symbol id="guarantee" viewBox="0 0 92 83" fill="none" xmlns="http://www.w3.org/2000/svg">
        <g filter="url(#filter0_d_4_41)">
            <path d="M45.8312 0.322546C25.0399 0.0401405 8.06624 17.1096 8.34706 38.0183C8.62433 58.0709 24.8604 74.3986 44.8004 74.6775C65.5953 74.9635 82.5654 57.894 82.281 36.9852C82.0073 16.9291 65.7713 0.601377 45.8312 0.322546ZM42.8471 34.7242L52.0093 24.1787C52.5057 23.6075 53.2073 23.2579 53.96 23.207C54.7126 23.156 55.4545 23.4078 56.0225 23.907C56.5905 24.4062 56.9381 25.1118 56.9888 25.8687C57.0394 26.6256 56.7891 27.3717 56.2927 27.9429L47.1305 38.4884C46.8847 38.7713 46.5859 39.0027 46.2512 39.1694C45.9166 39.3361 45.5525 39.4349 45.1798 39.4601C44.8072 39.4854 44.4332 39.4365 44.0793 39.3164C43.7254 39.1963 43.3985 39.0073 43.1172 38.7601C42.836 38.5129 42.6059 38.2125 42.4401 37.8759C42.2743 37.5393 42.1761 37.1732 42.151 36.7984C42.1259 36.4237 42.1745 36.0476 42.2939 35.6917C42.4133 35.3358 42.6013 35.0071 42.8471 34.7242V34.7242ZM35.9403 50.9625C35.4071 51.4985 34.684 51.7995 33.9302 51.7995C33.1763 51.7995 32.4532 51.4985 31.92 50.9625L23.3976 42.3831C23.1336 42.1174 22.9243 41.802 22.7815 41.455C22.6387 41.1079 22.5653 40.7359 22.5655 40.3603C22.5657 39.9847 22.6394 39.6129 22.7825 39.2659C22.9255 38.919 23.1352 38.6038 23.3994 38.3383C23.6636 38.0728 23.9772 37.8623 24.3223 37.7187C24.6675 37.5751 25.0373 37.5013 25.4108 37.5015C25.7843 37.5016 26.1541 37.5758 26.4991 37.7197C26.8441 37.8636 27.1575 38.0744 27.4215 38.3401L35.9528 46.9195C36.484 47.4574 36.7811 48.1855 36.7788 48.9436C36.7765 49.7018 36.4749 50.4279 35.9403 50.9625ZM67.3638 27.9429L47.4788 50.8213C47.2226 51.1165 46.9089 51.3557 46.557 51.5238C46.205 51.692 45.8225 51.7857 45.4331 51.799H45.3371C44.9635 51.7991 44.5934 51.7251 44.2482 51.5813C43.903 51.4374 43.5893 51.2266 43.3252 50.9608L34.8046 42.3813C34.2715 41.8447 33.9722 41.1171 33.9725 40.3585C33.9728 39.6 34.2728 38.8726 34.8064 38.3365C35.34 37.8004 36.0635 37.4993 36.8178 37.4997C37.5721 37.5 38.2954 37.8017 38.8285 38.3383L44.125 43.67C44.2627 43.8085 44.4272 43.9171 44.6083 43.9891C44.7895 44.061 44.9834 44.0947 45.178 44.0882C45.3726 44.0817 45.5639 44.035 45.7398 43.9511C45.9158 43.8671 46.0727 43.7478 46.2009 43.6003L63.0857 24.1787C63.5821 23.6075 64.2837 23.2579 65.0364 23.207C65.789 23.156 66.5309 23.4078 67.0989 23.907C67.667 24.4062 68.0145 25.1118 68.0652 25.8687C68.1159 26.6256 67.8655 27.3717 67.3691 27.9429H67.3638Z"
                  fill="#FC734E"/>
        </g>
        <defs>
            <filter id="filter0_d_4_41" x="-3.5" y="0" width="99" height="83" filterUnits="userSpaceOnUse"
                    color-interpolation-filters="sRGB">
                <feFlood flood-opacity="0" result="BackgroundImageFix"/>
                <feColorMatrix in="SourceAlpha" type="matrix" values="0 0 0 0 0 0 0 0 0 0 0 0 0 0 0 0 0 0 127 0"
                               result="hardAlpha"/>
                <feOffset dy="4"/>
                <feGaussianBlur stdDeviation="2"/>
                <feComposite in2="hardAlpha" operator="out"/>
                <feColorMatrix type="matrix" values="0 0 0 0 0 0 0 0 0 0 0 0 0 0 0 0 0 0 0.25 0"/>
                <feBlend mode="normal" in2="BackgroundImageFix" result="effect1_dropShadow_4_41"/>
                <feBlend mode="normal" in="SourceGraphic" in2="effect1_dropShadow_4_41" result="shape"/>
            </filter>
        </defs>
    </symbol>

    <symbol id="arrow-prev" viewBox="0 0 100 8" fill="none" xmlns="http://www.w3.org/2000/svg">
        <path d="M0.646447 3.64645C0.451184 3.84171 0.451184 4.15829 0.646447 4.35355L3.82843 7.53553C4.02369 7.7308 4.34027 7.7308 4.53553 7.53553C4.7308 7.34027 4.7308 7.02369 4.53553 6.82843L1.70711 4L4.53553 1.17157C4.7308 0.976311 4.7308 0.659728 4.53553 0.464466C4.34027 0.269204 4.02369 0.269204 3.82843 0.464466L0.646447 3.64645ZM1 4.5H100V3.5H1V4.5Z"
              fill="#FC734E"/>
    </symbol>

    <symbol id="arrow-next" viewBox="0 0 100 8" fill="none" xmlns="http://www.w3.org/2000/svg">
        <path d="M99.3536 4.35355C99.5488 4.15829 99.5488 3.84171 99.3536 3.64645L96.1716 0.464466C95.9763 0.269204 95.6597 0.269204 95.4645 0.464466C95.2692 0.659728 95.2692 0.976311 95.4645 1.17157L98.2929 4L95.4645 6.82843C95.2692 7.02369 95.2692 7.34027 95.4645 7.53553C95.6597 7.7308 95.9763 7.7308 96.1716 7.53553L99.3536 4.35355ZM0 4.5H99V3.5H0V4.5Z"
              fill="#FC734E"/>
    </symbol>
</svg>