<svg width="152" height="60" fill="none" xmlns="http://www.w3.org/2000/svg"><g clip-path="url(#clip0_128_377)"><path d="M75.354 4.937l.21 4.4h-.533a5.212 5.212 0 00-.42-1.662 2.805 2.805 0 00-1.148-1.18 4.065 4.065 0 00-1.902-.385h-2.672v14.353c0 1.156.126 1.875.375 2.161.356.388.902.582 1.64.582h.657v.509h-8.048V23.2h.671c.804 0 1.373-.24 1.71-.718.205-.295.307-.97.305-2.025V6.11H63.92a6.415 6.415 0 00-1.89.193 2.577 2.577 0 00-1.234 1.01 4.11 4.11 0 00-.615 2.025h-.548l.222-4.401h15.5zm14.161 9.198c1.317.279 2.305.722 2.963 1.33a4.13 4.13 0 011.018 1.416c.234.537.35 1.119.34 1.704a4.616 4.616 0 01-.896 2.69 5.114 5.114 0 01-2.455 1.87c-1.042.395-2.63.591-4.766.59h-8.967v-.514h.714c.793 0 1.363-.25 1.709-.748.212-.323.32-1.01.32-2.064V8.262c0-1.164-.134-1.897-.404-2.2-.366-.407-.907-.61-1.625-.61h-.714v-.515h8.201a16.29 16.29 0 013.68.332c1.401.326 2.471.915 3.21 1.766A4.308 4.308 0 0192.95 9.95a4.001 4.001 0 01-.87 2.529c-.58.746-1.436 1.298-2.565 1.655zm-7.332-.733c.39.07.786.117 1.182.144.443.032.931.049 1.463.049 1.36 0 2.383-.146 3.072-.438a3.275 3.275 0 001.573-1.335c.36-.59.549-1.267.546-1.956a3.562 3.562 0 00-.354-1.56 3.597 3.597 0 00-1.002-1.252c-.914-.792-2.234-1.188-3.961-1.188a9.598 9.598 0 00-2.52.305v7.23zm0 8.978a14.24 14.24 0 003.21.374c1.686 0 2.973-.377 3.862-1.13.42-.337.757-.764.987-1.25a3.516 3.516 0 00.337-1.55 4.046 4.046 0 00-.602-2.105 4.025 4.025 0 00-1.959-1.594 8.522 8.522 0 00-3.358-.582c-.578 0-1.075 0-1.482.027a7.734 7.734 0 00-.988.098l-.007 7.712zm27.963-14.34c0-1.128-.186-1.84-.554-2.14-.368-.3-1.113-.45-2.222-.45v-.513h8.214v.513c-1.176.038-1.927.222-2.253.553-.328.332-.494 1.117-.494 2.357v11.932c0 1.24.161 2.022.494 2.357.334.335 1.077.516 2.253.552v.514h-8.224V23.2c1.203-.037 1.968-.224 2.294-.56.326-.337.494-1.12.494-2.35V9.534l-8.804 11.17a5.96 5.96 0 00.161 1.613 1.151 1.151 0 00.686.646c.359.163.995.25 1.909.262v.49h-8.189v-.512c1.175-.037 1.926-.223 2.255-.553.328-.33.494-1.117.494-2.357V8.36c0-1.24-.165-2.026-.494-2.357-.33-.331-1.081-.515-2.255-.553v-.513h8.187v.513c-1.184.038-1.94.222-2.267.553-.328.33-.493 1.116-.494 2.357v10.82l8.809-11.14zm23.201-3.534l.435 6.387h-.435c-.578-1.912-1.401-3.288-2.469-4.127a6.079 6.079 0 00-3.863-1.262 6.332 6.332 0 00-3.42.949c-1.018.632-1.818 1.641-2.4 3.027-.583 1.385-.875 3.108-.875 5.168-.037 1.515.244 3.02.825 4.421a6.132 6.132 0 002.47 2.868 7.213 7.213 0 003.786.998 6.62 6.62 0 003.259-.782c.944-.524 1.98-1.56 3.11-3.11l.444.27c-.951 1.673-2.061 2.896-3.329 3.668a8.486 8.486 0 01-4.522 1.167c-3.144 0-5.579-1.155-7.305-3.465-1.286-1.72-1.929-3.743-1.931-6.069-.015-1.8.426-3.574 1.282-5.161a9.15 9.15 0 013.504-3.65 9.555 9.555 0 014.878-1.297 9.028 9.028 0 014.06.998c.255.158.541.262.839.306a.925.925 0 00.657-.265 2.16 2.16 0 00.519-1.039h.481zm18.446.431l.21 4.4h-.534a5.207 5.207 0 00-.42-1.662 2.803 2.803 0 00-1.153-1.186 4.067 4.067 0 00-1.897-.379h-2.672v14.353c0 1.156.126 1.875.378 2.161.354.388.9.582 1.637.582h.657v.509h-8.046V23.2h.682c.8 0 1.371-.244 1.706-.718.206-.295.309-.97.309-2.025V6.11h-2.282a6.412 6.412 0 00-1.889.193c-.514.197-.951.55-1.247 1.01a4.077 4.077 0 00-.615 2.025h-.531l.222-4.401h15.485zM63.66 29.46h6.175l.31 1.918h-.35a2.22 2.22 0 00-.313-.895 1.047 1.047 0 00-.494-.418 3.238 3.238 0 00-.961-.1h-.625v4.914c-.023.337.01.675.099 1a.49.49 0 00.316.284c.325.064.656.096.988.093v.286h-3.872v-.286c.493 0 .822-.09.965-.245.143-.154.215-.528.215-1.137V29.96h-.642a3.367 3.367 0 00-.911.08.985.985 0 00-.465.387 2.69 2.69 0 00-.38.946h-.35l.296-1.912zm11.15 3.34c1.308.268 1.962.874 1.962 1.818a1.56 1.56 0 01-.201.837 1.58 1.58 0 01-.617.608c-.543.317-1.301.489-2.274.489h-3.527v-.286c.462 0 .756-.086.877-.26.121-.173.183-.545.183-1.117v-3.766a3.102 3.102 0 00-.082-.978.825.825 0 00-.247-.268 1.46 1.46 0 00-.72-.118v-.298h3.291A6.588 6.588 0 0175 29.61c.375.088.713.29.965.58.255.29.39.664.38 1.048-.006.806-.517 1.327-1.533 1.563zm-2.3-.178h.414c.711 0 1.235-.134 1.544-.403a1.257 1.257 0 00.476-.978 1.052 1.052 0 00-.494-.978c-.32-.2-.836-.3-1.546-.3H72.5l.01 2.66zm0 3.294c.3.088.614.13.928.122.62 0 1.079-.132 1.383-.4a1.333 1.333 0 00.452-1.038 1.213 1.213 0 00-.586-1.088 2.987 2.987 0 00-1.625-.379c-.17 0-.355 0-.553.015v2.768zm8.223-6.663a3.174 3.174 0 012.608 1.223 3.73 3.73 0 01.835 2.393 4.482 4.482 0 01-.46 1.925 3.246 3.246 0 01-1.233 1.441 3.293 3.293 0 01-1.837.515c-.5.014-.997-.095-1.445-.317a3.023 3.023 0 01-1.12-.957 3.916 3.916 0 01-.806-2.413 4.232 4.232 0 01.494-1.935 3.225 3.225 0 011.202-1.373 3.27 3.27 0 011.762-.51v.008zm-.247.504a1.65 1.65 0 00-.832.244 1.715 1.715 0 00-.674.854 4.12 4.12 0 00-.247 1.57 5.434 5.434 0 00.62 2.667c.414.733.958 1.12 1.634 1.12a1.533 1.533 0 001.25-.619c.328-.413.494-1.12.494-2.125 0-1.256-.273-2.246-.82-2.968a1.7 1.7 0 00-1.42-.743h-.005zm6.495 4.603l3.092-3.537c.02-.294-.06-.586-.227-.83a.961.961 0 00-.724-.244v-.288h3.324v.296a1.595 1.595 0 00-.701.102.822.822 0 00-.282.26c-.069.102-.101.437-.101 1.005v3.755c-.025.329.004.659.084.978a.825.825 0 00.27.279c.232.102.487.143.74.12v.286h-3.457v-.286c.432 0 .72-.078.866-.245.146-.166.218-.535.218-1.14V31.54l-3.092 3.548c-.018.312.047.623.188.902.116.167.363.245.74.245v.286H84.61v-.286c.462 0 .758-.086.89-.245.13-.159.194-.543.194-1.124v-3.742a2.979 2.979 0 00-.086-.978.834.834 0 00-.264-.27 1.52 1.52 0 00-.741-.118v-.296h3.457v.296c-.24-.019-.48.016-.704.102a.868.868 0 00-.281.26c-.067.102-.101.437-.101 1.005l.007 3.237zm15.432-.508a3.795 3.795 0 01-1.131 2.152 2.73 2.73 0 01-1.864.753 2.782 2.782 0 01-1.177-.27 2.754 2.754 0 01-.947-.742c-.603-.675-.904-1.587-.904-2.736a3.733 3.733 0 011.003-2.712 3.238 3.238 0 012.408-1.044 2.646 2.646 0 011.728.553c.455.369.679.75.679 1.149a.627.627 0 01-.19.474.745.745 0 01-.536.181.833.833 0 01-.694-.293 1.217 1.217 0 01-.175-.619 1.006 1.006 0 00-.316-.694 1.139 1.139 0 00-.758-.233 1.556 1.556 0 00-1.255.572 3.012 3.012 0 00-.632 2c-.016.792.202 1.57.627 2.24.169.299.415.547.714.719.298.172.638.261.983.26.507.001.998-.183 1.375-.519.371-.364.656-.804.835-1.289l.227.098zm.438-4.392h6.173l.314 1.918h-.351a2.207 2.207 0 00-.313-.895 1.048 1.048 0 00-.494-.418 3.239 3.239 0 00-.961-.1h-.625v4.914c-.023.337.01.675.099 1a.488.488 0 00.316.284c.325.064.656.096.988.093v.286h-3.877v-.286c.494 0 .822-.09.965-.245.144-.154.215-.528.215-1.137V29.96h-.642a3.367 3.367 0 00-.911.08.984.984 0 00-.464.387c-.185.289-.314.61-.381.946h-.35l.299-1.912zm7.816 2.668c0 1.052.257 1.876.773 2.472a2.355 2.355 0 001.832.897 2.01 2.01 0 001.223-.38 2.84 2.84 0 00.871-1.311l.247.154a3.661 3.661 0 01-.951 1.929 2.566 2.566 0 01-1.975.868 2.905 2.905 0 01-2.206-.993c-.61-.663-.916-1.553-.916-2.67 0-1.21.314-2.155.941-2.831a3.091 3.091 0 012.361-1.017 2.662 2.662 0 011.976.785 2.862 2.862 0 01.773 2.098h-4.949zm0-.45h3.309a2.995 2.995 0 00-.166-.956 1.543 1.543 0 00-1.387-.926 1.626 1.626 0 00-1.161.489 2.158 2.158 0 00-.595 1.393zm12.587 4.864h-2.109a29.797 29.797 0 01-1.778-2.9c-.095-.18-.21-.35-.341-.506a.534.534 0 00-.417-.167c-.062 0-.161 0-.297.018v1.892c-.02.329.01.659.089.978a.553.553 0 00.324.306c.256.075.523.106.79.093v.286h-3.576v-.286c.465 0 .761-.086.889-.245.129-.159.195-.543.195-1.125v-3.763a2.984 2.984 0 00-.084-.978.818.818 0 00-.266-.27 1.496 1.496 0 00-.741-.118v-.296h3.576v.296a1.964 1.964 0 00-.8.093 1.241 1.241 0 00-.277.227c-.084.09-.126.438-.126 1.046v1.394c.119 0 .2.015.247.015.318 0 .629-.093.894-.267.279-.176.526-.555.741-1.132a5.61 5.61 0 01.494-1.105c.141-.2.332-.36.553-.467a1.59 1.59 0 01.741-.18 1.03 1.03 0 01.672.2.694.694 0 01.244.474.685.685 0 01-.175.504.656.656 0 01-.494.188 1.28 1.28 0 01-.43-.093 1.703 1.703 0 00-.494-.115c-.247 0-.437.203-.592.611-.109.312-.24.615-.393.907-.136.2-.295.383-.474.546.202.073.383.195.526.354.403.51.757 1.056 1.057 1.631.252.489.563.945.926 1.36.249.207.568.315.894.303l.012.29z" fill="#fff"/><path d="M124.101 29.46h6.391v.297a1.58 1.58 0 00-.703.102.83.83 0 00-.279.26c-.067.102-.102.437-.102 1.005v3.755a3.04 3.04 0 00.087.978c.067.114.161.21.274.279.228.101.479.142.728.12v.286h-3.692v-.286c.279.01.559-.011.833-.064a.585.585 0 00.363-.296c.114-.326.159-.672.131-1.017v-4.914h-2.381v2.983c.025.795-.026 1.59-.151 2.376a1.64 1.64 0 01-.6 1.013 1.703 1.703 0 01-1.027.327c-.667 0-1-.271-1-.819a.65.65 0 01.16-.455.527.527 0 01.417-.178.736.736 0 01.509.225c.203.195.356.293.46.293.234 0 .405-.195.511-.584a8.872 8.872 0 00.16-2.044v-1.563c0-.805-.058-1.294-.175-1.467-.116-.174-.417-.281-.901-.315l-.013-.296zm10.814 6.06a11.82 11.82 0 01-1.38.978c-.282.13-.589.195-.899.193a1.621 1.621 0 01-1.22-.504 1.827 1.827 0 01-.482-1.32 1.686 1.686 0 01.235-.897 3.1 3.1 0 011.114-.978 16.99 16.99 0 012.632-1.13v-.279c0-.704-.112-1.188-.338-1.452a1.23 1.23 0 00-.988-.394 1.121 1.121 0 00-.78.262.792.792 0 00-.296.604l.014.447a.773.773 0 01-.182.55.637.637 0 01-.482.194.618.618 0 01-.472-.201.793.793 0 01-.182-.55 1.57 1.57 0 01.686-1.223c.459-.371 1.102-.557 1.929-.557a3.353 3.353 0 011.561.318c.308.162.549.427.679.748.121.442.169.902.141 1.36v2.403c-.012.414.002.829.039 1.242.008.113.053.22.128.306.057.05.13.076.205.075a.424.424 0 00.22-.053 4.91 4.91 0 00.632-.563v.43c-.582.775-1.139 1.162-1.669 1.162a.768.768 0 01-.61-.264 1.417 1.417 0 01-.235-.907zm0-.502v-2.69c-.519.192-1.026.412-1.521.659-.343.168-.644.41-.881.709-.174.236-.267.52-.267.812-.011.339.109.67.336.924a1.018 1.018 0 00.773.366c.395-.004.915-.264 1.56-.78zm-68.367 8.959h-1.729v2.768c-.014.185.003.37.05.55a.415.415 0 00.15.157c.128.058.27.081.41.068v.157h-1.946v-.162c.262 0 .427-.046.494-.141a1.17 1.17 0 00.108-.634v-2.115a1.693 1.693 0 00-.046-.55.441.441 0 00-.151-.151.813.813 0 00-.413-.069v-.166h4.414v.166a.883.883 0 00-.395.059.435.435 0 00-.159.146 1.453 1.453 0 00-.059.565v2.115a1.67 1.67 0 00.05.55.434.434 0 00.15.157c.13.058.272.081.413.068v.162H65.94v-.162a.672.672 0 00.494-.132c.107-.196.15-.42.124-.643l-.01-2.763z" fill="#fff"/><path d="M67.81 44.09l1.234-.49h.166v.93c.154-.286.368-.536.627-.734.193-.136.424-.21.662-.212a1.288 1.288 0 011.01.472 2.2 2.2 0 01.494 1.496 2.472 2.472 0 01-.598 1.712 1.587 1.587 0 01-1.234.552 1.567 1.567 0 01-.564-.093 1.336 1.336 0 01-.395-.261v1.222a1.58 1.58 0 00.052.521c.036.077.098.14.176.176.145.052.3.074.454.064v.161h-2.112v-.161h.11a.795.795 0 00.414-.09.312.312 0 00.129-.155c.043-.177.059-.36.046-.543V44.87a2.099 2.099 0 00-.034-.49.294.294 0 00-.114-.156.366.366 0 00-.207-.053.841.841 0 00-.27.06l-.046-.141zm1.405.692v1.489c-.008.212.006.425.04.636a.822.822 0 00.3.442.93.93 0 00.606.193.874.874 0 00.71-.34c.261-.359.391-.795.369-1.237.033-.5-.109-.997-.403-1.406a.84.84 0 00-.669-.337.93.93 0 00-.417.103c-.2.127-.38.28-.536.457zm5.085-1.206a1.8 1.8 0 011.467.69c.31.381.475.858.469 1.347a2.512 2.512 0 01-.26 1.083 1.826 1.826 0 01-.693.816 1.854 1.854 0 01-1.035.292 1.72 1.72 0 01-1.447-.719 2.213 2.213 0 01-.45-1.364c.004-.38.097-.754.274-1.09.157-.332.409-.611.724-.803.288-.166.617-.253.95-.252zm-.139.284a.923.923 0 00-.466.137.96.96 0 00-.38.489 2.3 2.3 0 00-.146.883 3.036 3.036 0 00.35 1.5c.232.421.539.632.919.632a.86.86 0 00.704-.347c.186-.234.278-.633.276-1.199a2.699 2.699 0 00-.461-1.67.945.945 0 00-.796-.425zm3.655 2.594l1.741-1.992a.728.728 0 00-.128-.468.544.544 0 00-.407-.134v-.166h1.871v.166a.888.888 0 00-.395.059.454.454 0 00-.158.146 1.476 1.476 0 00-.056.565v2.115c-.015.185.001.37.046.55a.43.43 0 00.154.157c.128.058.27.081.41.068v.157h-1.947v-.162a.669.669 0 00.494-.132c.108-.196.15-.42.124-.643v-1.875l-1.741 1.998c-.01.175.027.35.106.508a.495.495 0 00.417.144v.162h-1.86v-.162c.263 0 .43-.046.495-.141.096-.197.134-.416.11-.634v-2.115a1.659 1.659 0 00-.049-.55.453.453 0 00-.148-.151.824.824 0 00-.415-.069v-.166h1.949v.166a.882.882 0 00-.395.059.464.464 0 00-.16.146 1.532 1.532 0 00-.058.565v1.83zm3.379-1.511v-1.25h.185a.247.247 0 00.175.072c.111-.013.22-.037.326-.071.221-.07.45-.109.682-.118.343-.011.68.082.968.267a.82.82 0 01.39.704c0 .45-.345.776-1.035.978.803.164 1.206.538 1.206 1.117a1.049 1.049 0 01-.388.807c-.316.255-.718.38-1.124.352a1.993 1.993 0 01-.852-.173 3.211 3.211 0 01-.797-.58l.116-.114c.38.33.86.524 1.365.552a.803.803 0 00.608-.244.898.898 0 00.247-.643c0-.58-.377-.886-1.131-.92v-.244a.963.963 0 00.773-.282.925.925 0 00.247-.601.693.693 0 00-.205-.49.714.714 0 00-.544-.214c-.52 0-.867.371-1.037 1.11l-.175-.015zm5.751.631c.741.152 1.104.489 1.104 1.025a.873.873 0 01-.459.811c-.397.2-.841.293-1.287.267H84.33v-.162c.247 0 .424-.048.494-.146.089-.197.125-.414.103-.629v-2.115a1.779 1.779 0 00-.047-.552.464.464 0 00-.145-.15.787.787 0 00-.405-.068v-.166h1.854c.291-.006.582.022.867.083.212.05.403.165.546.328a.87.87 0 01.212.591c-.003.455-.29.75-.862.883zm-1.296-.1h.232c.308.026.617-.054.872-.228a.713.713 0 00.266-.555.59.59 0 00-.271-.547 1.684 1.684 0 00-.87-.172h-.23v1.502zm0 1.856c.17.049.346.072.523.068.28.022.556-.06.778-.227a.733.733 0 00.247-.582.684.684 0 00-.328-.614 1.683 1.683 0 00-.916-.213h-.311l.007 1.568zm4.63-3.754a1.794 1.794 0 011.467.69 2.1 2.1 0 01.472 1.347 2.51 2.51 0 01-.26 1.086 1.826 1.826 0 01-.693.815 1.853 1.853 0 01-1.035.292 1.721 1.721 0 01-1.445-.718 2.213 2.213 0 01-.452-1.358c.004-.38.098-.753.274-1.09a1.82 1.82 0 01.679-.774c.296-.188.641-.288.993-.287v-.003zm-.136.284a.938.938 0 00-.469.137.979.979 0 00-.38.489 2.301 2.301 0 00-.143.883 3.065 3.065 0 00.348 1.5 1.033 1.033 0 00.921.632.866.866 0 00.704-.347c.183-.233.276-.631.276-1.199a2.716 2.716 0 00-.461-1.67.946.946 0 00-.796-.425zm2.687-.166h3.552v.166a.887.887 0 00-.398.059.446.446 0 00-.156.146 1.532 1.532 0 00-.056.565v1.97a1.6 1.6 0 00.106.766c.072.093.237.145.494.154v1.267h-.166a1.301 1.301 0 00-.18-.624.872.872 0 00-.445-.374 2.545 2.545 0 00-.844-.107h-1.025c-.255-.009-.51.02-.756.083a.86.86 0 00-.454.354c-.128.202-.204.43-.222.668h-.163V47.52a.993.993 0 00.654-.283c.262-.303.44-.666.519-1.057a5.604 5.604 0 00.225-1.55c0-.499-.228-.755-.682-.77l-.003-.166zm.97.283v.245c0 1.426-.26 2.486-.78 3.178h1.495c.269 0 .424-.021.464-.068.06-.156.08-.324.062-.489v-2.866h-1.24zm4.049 2.477l1.74-1.992a.728.728 0 00-.128-.468.546.546 0 00-.41-.134v-.166h1.875v.166a.901.901 0 00-.398.059.483.483 0 00-.158.146 1.54 1.54 0 00-.057.565v2.115c-.014.185.003.37.05.55a.414.414 0 00.15.157.83.83 0 00.413.068v.157h-1.949v-.162a.672.672 0 00.494-.132c.107-.196.15-.42.124-.643v-1.875l-1.742 1.998a.97.97 0 00.107.508.495.495 0 00.417.144v.162h-1.86v-.162c.26 0 .428-.046.494-.141.094-.198.131-.417.109-.634v-2.115a1.693 1.693 0 00-.047-.55.463.463 0 00-.15-.151.813.813 0 00-.413-.069v-.166h1.946v.166a.888.888 0 00-.395.059.456.456 0 00-.158.146 1.534 1.534 0 00-.057.565l.003 1.83z" fill="#fff"/><path d="M101.077 43.694h3.482l.176 1.08h-.198a1.242 1.242 0 00-.178-.506.606.606 0 00-.279-.244 1.835 1.835 0 00-.541-.056h-.353v2.767c-.012.19.007.381.057.565a.27.27 0 00.178.157c.184.038.372.056.561.053v.167h-2.188v-.162a.836.836 0 00.543-.134c.107-.196.149-.42.121-.64v-2.764h-.348a1.82 1.82 0 00-.514.047.556.556 0 00-.262.217 1.562 1.562 0 00-.215.534h-.197l.155-1.081zm4.404 1.501a2.03 2.03 0 00.434 1.394 1.321 1.321 0 001.032.503c.248.006.49-.07.69-.215.232-.193.403-.447.493-.733l.136.085a2.054 2.054 0 01-.536 1.086 1.422 1.422 0 01-1.111.489 1.642 1.642 0 01-1.235-.56 2.14 2.14 0 01-.516-1.504 2.252 2.252 0 01.529-1.594 1.74 1.74 0 011.331-.572 1.49 1.49 0 011.111.44 1.623 1.623 0 01.435 1.181h-2.793zm0-.245h1.862a1.7 1.7 0 00-.092-.537.864.864 0 00-.328-.384.827.827 0 00-.455-.14.91.91 0 00-.652.281c-.2.21-.319.484-.335.773v.008zm3.459-1.256h3.601v.166a.883.883 0 00-.398.059.445.445 0 00-.155.146 1.44 1.44 0 00-.059.565v2.115c-.014.185.002.37.049.55a.409.409 0 00.151.157.825.825 0 00.412.068v.157h-2.084v-.162a2.19 2.19 0 00.469-.034.334.334 0 00.202-.169c.067-.183.093-.378.077-.572v-2.763h-1.341v1.68c.014.448-.015.895-.086 1.338a.884.884 0 01-.313.55.9.9 0 01-.604.205c-.375 0-.563-.154-.563-.46a.373.373 0 01.092-.256.298.298 0 01.234-.1.411.411 0 01.287.124c.113.11.2.166.247.166.131 0 .227-.11.286-.33a4.87 4.87 0 00.092-1.149v-.88c.025-.28-.008-.56-.099-.827-.067-.097-.247-.158-.509-.178l.012-.166zm5.066 1.782h.493c1.196 0 1.793.366 1.793 1.098a.948.948 0 01-.437.814 2.17 2.17 0 01-1.259.308h-1.934v-.161c.262 0 .427-.046.494-.142.096-.197.134-.416.111-.633v-2.115a1.645 1.645 0 00-.049-.55.465.465 0 00-.148-.152.834.834 0 00-.415-.068v-.167h2.106v.167a1.59 1.59 0 00-.536.051.476.476 0 00-.168.13c-.065.189-.088.39-.066.589l.015.831zm0 1.866c.152.04.309.061.466.06.259.013.512-.069.714-.229a.725.725 0 00.274-.584c0-.558-.39-.834-1.173-.834h-.281v1.587zM67.592 58.078h-1.188a17.244 17.244 0 01-1.002-1.63 1.468 1.468 0 00-.19-.287.304.304 0 00-.235-.093h-.168v1.066c-.01.185.006.37.05.55a.317.317 0 00.182.174c.145.042.295.059.445.052v.16h-2.013v-.16c.262 0 .427-.047.494-.142.095-.197.133-.417.109-.634V55.02a1.694 1.694 0 00-.047-.55.441.441 0 00-.15-.151.842.842 0 00-.413-.069v-.164h2.012v.164a1.123 1.123 0 00-.45.054.645.645 0 00-.155.127c-.07.188-.094.39-.071.59v.784h.135a.917.917 0 00.494-.149c.202-.166.349-.388.42-.638.07-.217.166-.425.284-.621a.825.825 0 01.311-.264.909.909 0 01.42-.103.597.597 0 01.378.113.369.369 0 01-.247.662.747.747 0 01-.247-.051.913.913 0 00-.281-.066c-.134 0-.245.115-.334.345a3.9 3.9 0 01-.22.51 1.813 1.813 0 01-.266.306.765.765 0 01.296.2c.226.288.425.595.595.918.142.275.317.533.521.767a.745.745 0 00.494.17l.037.175z" fill="#fff"/><path d="M69.168 53.975a1.791 1.791 0 011.467.687c.31.382.477.86.471 1.35 0 .375-.084.745-.246 1.083-.152.34-.4.627-.717.827a1.89 1.89 0 01-1.012.278 1.716 1.716 0 01-1.445-.718 2.198 2.198 0 01-.454-1.358 2.37 2.37 0 01.276-1.09 1.843 1.843 0 011.672-1.059h-.012zm-.136.282a.938.938 0 00-.47.136.98.98 0 00-.38.49 2.298 2.298 0 00-.145.882 3.057 3.057 0 00.35 1.501c.233.42.54.631.922.631a.858.858 0 00.701-.347c.186-.233.28-.632.28-1.196a2.718 2.718 0 00-.463-1.672.95.95 0 00-.795-.425zm3.653 1.616h1.728v-.846a2.542 2.542 0 00-.03-.49.353.353 0 00-.152-.195.809.809 0 00-.428-.08v-.165h1.946v.164a.995.995 0 00-.397.061.318.318 0 00-.168.176c-.04.175-.055.355-.045.534v2.115c-.007.167.004.335.032.5a.338.338 0 00.161.199.85.85 0 00.417.076v.161h-1.946v-.161a.667.667 0 00.494-.132 1.05 1.05 0 00.124-.643v-.978h-1.729v.978c-.007.167.005.335.035.5a.326.326 0 00.16.199c.13.06.274.087.418.076v.161h-1.949v-.161c.262 0 .43-.047.494-.142.096-.197.135-.416.111-.633v-2.115a2.304 2.304 0 00-.035-.49.315.315 0 00-.16-.195.84.84 0 00-.417-.076v-.164h1.948v.164a.997.997 0 00-.398.061.33.33 0 00-.17.176 1.91 1.91 0 00-.044.533v.832zm6.705.692a2.152 2.152 0 01-.638 1.21c-.281.27-.657.422-1.05.425a1.566 1.566 0 01-1.195-.57 2.228 2.228 0 01-.51-1.54 2.115 2.115 0 01.565-1.528 1.802 1.802 0 011.356-.587c.352-.017.698.09.978.303a.867.867 0 01.382.646.357.357 0 01-.108.269.413.413 0 01-.302.103.475.475 0 01-.39-.167.697.697 0 01-.099-.347.584.584 0 00-.177-.393.65.65 0 00-.428-.13.877.877 0 00-.706.323 1.7 1.7 0 00-.355 1.127c-.01.445.115.883.355 1.26a1.075 1.075 0 00.956.544c.285 0 .56-.103.773-.29.21-.208.37-.458.472-.734l.12.076zm.246-2.472h3.483l.175 1.078h-.2c-.02-.179-.08-.35-.175-.504a.596.596 0 00-.282-.244 1.743 1.743 0 00-.54-.059h-.354v2.768c-.013.19.007.38.057.565a.285.285 0 00.178.159c.185.036.374.053.563.051v.161h-2.19v-.161a.821.821 0 00.543-.134c.107-.196.15-.42.12-.641v-2.758h-.36a1.933 1.933 0 00-.514.046.569.569 0 00-.261.218 1.522 1.522 0 00-.213.533h-.197l.168-1.078z" fill="#fff"/><path d="M83.185 54.489l1.235-.49h.168v.932c.153-.286.367-.536.627-.733.194-.136.425-.21.662-.21a1.284 1.284 0 011.01.469c.343.423.52.955.494 1.496a2.484 2.484 0 01-.598 1.712 1.586 1.586 0 01-1.234.553 1.558 1.558 0 01-.563-.093 1.289 1.289 0 01-.396-.26v1.223c-.012.175.006.351.052.52a.37.37 0 00.176.177c.145.054.3.077.454.066v.159h-2.109v-.16h.109a.825.825 0 00.415-.092.312.312 0 00.128-.154 1.87 1.87 0 00.047-.543v-3.804a1.94 1.94 0 00-.037-.49.287.287 0 00-.111-.156.371.371 0 00-.208-.051.78.78 0 00-.269.06l-.052-.131zm1.405.692v1.486c-.008.213.005.426.04.636a.814.814 0 00.301.445.942.942 0 00.605.19.869.869 0 00.712-.34c.258-.363.384-.804.355-1.248a2.14 2.14 0 00-.405-1.404.833.833 0 00-.667-.34.93.93 0 00-.417.103 2.513 2.513 0 00-.524.472zm2.766-1.088h1.877v.161h-.091a.45.45 0 00-.296.083.266.266 0 00-.1.213c.015.165.065.325.146.47l.988 2.01.902-2.201a.927.927 0 00.076-.355.196.196 0 00-.032-.117.232.232 0 00-.109-.076.846.846 0 00-.264-.027v-.161h1.31v.161a.596.596 0 00-.248.069.736.736 0 00-.195.195c-.055.109-.105.22-.148.335l-1.657 3.978c-.126.341-.34.643-.623.876a1.242 1.242 0 01-.74.295.619.619 0 01-.425-.149.448.448 0 01-.168-.34.373.373 0 01.12-.293.475.475 0 01.332-.11c.137.009.271.041.397.095.07.031.144.054.22.066a.458.458 0 00.287-.137c.142-.148.249-.326.313-.52l.287-.692-1.445-3.008a2.565 2.565 0 00-.212-.335 1.13 1.13 0 00-.18-.205.978.978 0 00-.327-.12l.005-.161z" fill="#fff"/><path d="M95.857 58.078h-1.188a17.05 17.05 0 01-1.003-1.63 1.468 1.468 0 00-.19-.287.304.304 0 00-.247-.093h-.168v1.066c-.012.185.005.371.052.55a.307.307 0 00.18.174c.144.042.295.059.445.052v.16h-2v-.16c.261 0 .427-.047.493-.142.095-.197.133-.417.109-.634V55.02a1.697 1.697 0 00-.047-.55.441.441 0 00-.15-.151.842.842 0 00-.413-.069v-.164h2.013v.164a1.123 1.123 0 00-.45.054.695.695 0 00-.155.127c-.07.188-.095.39-.072.59v.784h.136a.91.91 0 00.494-.149c.202-.166.348-.388.42-.638a3.03 3.03 0 01.284-.621.825.825 0 01.31-.264.908.908 0 01.42-.103.597.597 0 01.378.113.369.369 0 01-.246.662.768.768 0 01-.248-.051.9.9 0 00-.281-.066c-.133 0-.245.115-.333.345a3.9 3.9 0 01-.22.51 1.808 1.808 0 01-.267.306.763.763 0 01.296.2c.226.288.425.595.596.918.141.275.316.533.52.767a.745.745 0 00.495.17l.037.175z" fill="#fff"/><path d="M100.252 57.917v1.266h-.163a1.078 1.078 0 00-.335-.807c-.215-.198-.605-.298-1.171-.298h-2.741v-.161c.26 0 .427-.047.494-.142a1.16 1.16 0 00.11-.633v-2.115a1.66 1.66 0 00-.049-.55.456.456 0 00-.148-.152.842.842 0 00-.412-.069v-.163h1.946v.163a.882.882 0 00-.395.06.435.435 0 00-.158.146 1.476 1.476 0 00-.057.565v2.252a.839.839 0 00.067.447.785.785 0 00.437.069h.728c.272 0 .427-.025.465-.074a1.07 1.07 0 00.056-.489v-2.215a2.106 2.106 0 00-.042-.533.312.312 0 00-.172-.179.997.997 0 00-.396-.058v-.164h1.946v.164a.887.887 0 00-.395.058.476.476 0 00-.158.147 1.532 1.532 0 00-.057.565v2.051a1.4 1.4 0 00.102.692c.056.096.227.145.498.157zm1.472-1.067l1.729-1.992a.725.725 0 00-.126-.465.542.542 0 00-.41-.136v-.164h1.872v.163a.893.893 0 00-.395.06.483.483 0 00-.158.146 1.54 1.54 0 00-.057.565v2.115c-.014.184.003.37.049.55a.44.44 0 00.151.159.86.86 0 00.41.066v.161h-1.939v-.161a.673.673 0 00.494-.132c.107-.197.149-.422.121-.643v-1.886l-1.728 1.998a.984.984 0 00.103.509.497.497 0 00.418.144v.161h-1.877v-.161c.259 0 .427-.046.494-.142a1.19 1.19 0 00.108-.633v-2.115a1.645 1.645 0 00-.049-.55.454.454 0 00-.148-.152.842.842 0 00-.413-.068v-.164h1.947v.164a.892.892 0 00-.396.058.46.46 0 00-.158.147 1.478 1.478 0 00-.056.565l.014 1.834zm4.547 0L108 54.859a.726.726 0 00-.129-.465.543.543 0 00-.407-.136v-.164h1.872v.163a.886.886 0 00-.396.06.442.442 0 00-.158.146 1.478 1.478 0 00-.059.565v2.115c-.013.188.005.377.054.56a.468.468 0 00.151.159c.13.055.272.078.413.066v.16h-1.949v-.16a.668.668 0 00.494-.133c.107-.196.151-.42.123-.642v-1.895l-1.728 1.997a.976.976 0 00.106.509.493.493 0 00.417.144v.161h-1.859v-.161c.261 0 .427-.046.494-.142a1.17 1.17 0 00.108-.633v-2.115a1.671 1.671 0 00-.047-.55.44.44 0 00-.15-.152.846.846 0 00-.413-.068v-.164h1.946v.164a.895.895 0 00-.395.058.483.483 0 00-.158.147 1.54 1.54 0 00-.057.565l-.002 1.834zm-.571-4.354a.353.353 0 01.084-.245.29.29 0 01.218-.092c.195 0 .365.178.516.538a.682.682 0 00.291.381.766.766 0 00.324.076.64.64 0 00.417-.118c.12-.118.21-.262.264-.42.124-.303.274-.453.452-.453a.302.302 0 01.225.093.32.32 0 01.07.107.3.3 0 01.021.126.783.783 0 01-.444.623c-.294.19-.637.29-.988.286a1.84 1.84 0 01-1.082-.261.772.772 0 01-.368-.641zm7.098 4.354l1.741-1.992a.732.732 0 00-.128-.465.547.547 0 00-.408-.136v-.164h1.872v.163a.906.906 0 00-.398.06.483.483 0 00-.158.146 1.519 1.519 0 00-.056.565v2.115c-.014.184.002.37.049.55a.44.44 0 00.151.159.86.86 0 00.412.066v.161h-1.948v-.161a.669.669 0 00.493-.132c.108-.197.151-.421.124-.643v-1.886l-1.741 1.998a.965.965 0 00.106.509.497.497 0 00.417.144v.161h-1.859v-.161c.259 0 .427-.046.494-.142a1.19 1.19 0 00.108-.633v-2.115a1.671 1.671 0 00-.047-.55.46.46 0 00-.15-.152.844.844 0 00-.413-.068v-.164h1.946v.164a.89.89 0 00-.395.058.46.46 0 00-.158.147 1.54 1.54 0 00-.057.565l.003 1.834zm3.388-1.508v-1.25h.185a.25.25 0 00.176.07c.11-.012.218-.035.323-.07a2.67 2.67 0 01.682-.117c.343-.012.682.08.97.264a.823.823 0 01.388.707c0 .447-.343.775-1.032.978.802.163 1.203.535 1.205 1.117a1.064 1.064 0 01-.388.81 1.624 1.624 0 01-1.126.35 2.013 2.013 0 01-.849-.172 3.19 3.19 0 01-.798-.582l.114-.112c.381.329.862.523 1.368.552a.807.807 0 00.605-.244.89.89 0 00.247-.643c0-.577-.377-.884-1.131-.92v-.244a.956.956 0 00.77-.281.897.897 0 00.247-.602.696.696 0 00-.451-.652.724.724 0 00-.295-.05c-.522 0-.867.37-1.037 1.11l-.173-.019zm8.587 1.223a2.154 2.154 0 01-.637 1.21c-.282.27-.658.422-1.05.425a1.569 1.569 0 01-1.198-.57 2.237 2.237 0 01-.508-1.54 2.103 2.103 0 01.565-1.528 1.813 1.813 0 011.356-.587 1.5 1.5 0 01.988.31.87.87 0 01.383.646.364.364 0 01-.109.27.42.42 0 01-.301.102.471.471 0 01-.391-.166.666.666 0 01-.098-.348.588.588 0 00-.178-.393.649.649 0 00-.427-.13.881.881 0 00-.709.323c-.25.322-.376.722-.356 1.127a2.27 2.27 0 00.356 1.26 1.075 1.075 0 00.956.545c.285 0 .56-.104.773-.291.209-.207.369-.458.469-.734l.116.069zm.244-2.472h3.483l.175 1.078h-.198a1.214 1.214 0 00-.178-.504.577.577 0 00-.279-.244 1.739 1.739 0 00-.54-.059h-.354v2.768c-.012.19.007.38.057.565a.275.275 0 00.178.159c.185.036.372.053.561.051v.161h-2.188v-.161a.82.82 0 00.543-.134c.107-.196.15-.42.121-.641v-2.758h-.361a1.92 1.92 0 00-.513.046.57.57 0 00-.262.218 1.566 1.566 0 00-.215.533h-.198l.168-1.078zm4.401 1.501a2.03 2.03 0 00.437 1.391 1.324 1.324 0 001.033.506c.246.005.487-.07.686-.215.23-.194.401-.448.494-.733l.136.088a2.072 2.072 0 01-.536 1.085 1.438 1.438 0 01-1.111.49 1.633 1.633 0 01-1.235-.56 2.12 2.12 0 01-.516-1.504 2.256 2.256 0 01.528-1.595 1.736 1.736 0 011.329-.572 1.497 1.497 0 011.114.443 1.609 1.609 0 01.434 1.18l-2.793-.004zm0-.245h1.865a1.686 1.686 0 00-.092-.54.865.865 0 00-.328-.384.828.828 0 00-.454-.14.92.92 0 00-.652.282 1.21 1.21 0 00-.339.775v.008zm7.088 2.729h-1.186a16.72 16.72 0 01-1.002-1.63 1.454 1.454 0 00-.193-.287.298.298 0 00-.234-.093h-.166v1.066c-.012.185.004.37.05.55a.307.307 0 00.182.174c.144.042.295.06.445.052v.16h-2.013v-.16c.247 0 .427-.047.494-.142.096-.197.135-.416.111-.634V55.02a1.646 1.646 0 00-.049-.55.465.465 0 00-.148-.151.846.846 0 00-.413-.069v-.164h2.013v.164a1.13 1.13 0 00-.452.054.707.707 0 00-.156.127 1.3 1.3 0 00-.069.59v.784h.136a.922.922 0 00.494-.149c.202-.165.347-.388.417-.638a3.3 3.3 0 01.284-.621.858.858 0 01.314-.264.9.9 0 01.42-.103.6.6 0 01.378.113.388.388 0 01.119.422.371.371 0 01-.08.133.38.38 0 01-.281.107.741.741 0 01-.247-.051.934.934 0 00-.282-.066c-.137 0-.248.115-.333.345a4.324 4.324 0 01-.22.51 1.742 1.742 0 01-.269.306c.114.042.215.11.296.2.228.287.427.594.595.918.142.275.317.533.521.767a.746.746 0 00.494.17l.03.175z" fill="#fff"/><path d="M136.985 54.093h3.598v.163a.885.885 0 00-.397.06.44.44 0 00-.156.146 1.478 1.478 0 00-.057.565v2.115c-.014.184.002.37.047.55.037.065.09.12.153.159a.86.86 0 00.41.066v.161h-2.084v-.161c.157.005.314-.006.469-.035a.324.324 0 00.205-.169 1.39 1.39 0 00.074-.571v-2.768h-1.329v1.68c.014.448-.014.896-.084 1.34a.934.934 0 01-.338.57.968.968 0 01-.58.183c-.373 0-.561-.152-.561-.46a.371.371 0 01.089-.257.303.303 0 01.235-.1.411.411 0 01.286.125c.114.112.2.166.247.166.131 0 .227-.11.289-.328.074-.379.103-.765.089-1.151v-.886a1.962 1.962 0 00-.099-.828c-.066-.098-.234-.157-.494-.179l-.012-.156zm6.087 3.411a6.516 6.516 0 01-.777.547c-.155.072-.324.11-.494.11a.92.92 0 01-.689-.283 1.03 1.03 0 01-.27-.734.938.938 0 01.131-.506c.161-.233.376-.423.628-.555a9.48 9.48 0 011.481-.636v-.156a1.298 1.298 0 00-.19-.82.696.696 0 00-.555-.222.621.621 0 00-.44.15.44.44 0 00-.168.34v.244a.43.43 0 01-.104.308.349.349 0 01-.271.11.345.345 0 01-.265-.115.434.434 0 01-.103-.308.874.874 0 01.39-.7 1.666 1.666 0 011.084-.313c.303-.012.605.05.879.179.175.09.31.24.383.42.068.25.094.51.079.768v1.352c-.006.234.001.467.022.7a.303.303 0 00.072.17.176.176 0 00.116.045.226.226 0 00.123-.032c.129-.094.248-.2.356-.318v.245c-.329.435-.643.653-.941.653a.424.424 0 01-.341-.15.782.782 0 01-.136-.493zm0-.284v-1.518a8.274 8.274 0 00-.856.371 1.439 1.439 0 00-.494.399.777.777 0 00-.149.457.75.75 0 00.188.52.574.574 0 00.435.206c.22 0 .513-.144.876-.442v.007z" fill="#fff"/><path d="M42.743 23.385H32.361v-2.778h17.875L29.423 0 0 29.13l29.422 29.13 13.321-13.19V23.385z" fill="#FF6D4C"/><path d="M45.897 41.948L58.843 29.13l-5.804-5.746h-7.142v18.563z" fill="#FF6D4C"/></g><defs><clipPath id="clip0_128_377"><path fill="#fff" d="M0 0h152v60H0z"/></clipPath></defs></svg>